<mxfile host="Electron" modified="2023-05-04T12:59:48.105Z" agent="Mozilla/5.0 (Macintosh; Intel Mac OS X 10_15_7) AppleWebKit/537.36 (KHTML, like Gecko) draw.io/21.1.2 Chrome/106.0.5249.199 Electron/21.4.3 Safari/537.36" etag="rDvI4m9RUQnSRNywPlJi" version="21.1.2" type="device">
  <diagram name="Page-1" id="VLnZcqKubZClmuggIZkq">
    <mxGraphModel dx="1514" dy="615" grid="1" gridSize="10" guides="1" tooltips="1" connect="1" arrows="1" fold="1" page="0" pageScale="1" pageWidth="827" pageHeight="1169" math="0" shadow="0">
      <root>
        <mxCell id="0" />
        <mxCell id="1" parent="0" />
        <mxCell id="SxVyRgGix0BMsTmsFQzA-1" value="Input" style="text;html=1;strokeColor=none;fillColor=none;align=center;verticalAlign=middle;whiteSpace=wrap;rounded=0;" parent="1" vertex="1">
          <mxGeometry x="50" y="60" width="130" height="30" as="geometry" />
        </mxCell>
        <mxCell id="SxVyRgGix0BMsTmsFQzA-2" value="" style="group" parent="1" vertex="1" connectable="0">
          <mxGeometry x="40" y="95" width="150" height="270" as="geometry" />
        </mxCell>
        <mxCell id="SxVyRgGix0BMsTmsFQzA-3" value="" style="rounded=0;whiteSpace=wrap;html=1;fillColor=#fff2cc;strokeColor=#d6b656;" parent="SxVyRgGix0BMsTmsFQzA-2" vertex="1">
          <mxGeometry y="30" width="150" height="30" as="geometry" />
        </mxCell>
        <mxCell id="SxVyRgGix0BMsTmsFQzA-4" value="" style="rounded=0;whiteSpace=wrap;html=1;fillColor=#fff2cc;strokeColor=#d6b656;" parent="SxVyRgGix0BMsTmsFQzA-2" vertex="1">
          <mxGeometry y="60" width="150" height="30" as="geometry" />
        </mxCell>
        <mxCell id="SxVyRgGix0BMsTmsFQzA-5" value="" style="rounded=0;whiteSpace=wrap;html=1;fillColor=#fff2cc;strokeColor=#d6b656;" parent="SxVyRgGix0BMsTmsFQzA-2" vertex="1">
          <mxGeometry y="90" width="150" height="30" as="geometry" />
        </mxCell>
        <mxCell id="SxVyRgGix0BMsTmsFQzA-6" value="" style="rounded=0;whiteSpace=wrap;html=1;fillColor=#fff2cc;strokeColor=#d6b656;" parent="SxVyRgGix0BMsTmsFQzA-2" vertex="1">
          <mxGeometry y="120" width="150" height="30" as="geometry" />
        </mxCell>
        <mxCell id="SxVyRgGix0BMsTmsFQzA-7" value="" style="rounded=0;whiteSpace=wrap;html=1;fillColor=#fff2cc;strokeColor=#d6b656;" parent="SxVyRgGix0BMsTmsFQzA-2" vertex="1">
          <mxGeometry y="150" width="150" height="30" as="geometry" />
        </mxCell>
        <mxCell id="SxVyRgGix0BMsTmsFQzA-8" value="[SEP]" style="rounded=0;whiteSpace=wrap;html=1;fillColor=#fff2cc;strokeColor=#d6b656;" parent="SxVyRgGix0BMsTmsFQzA-2" vertex="1">
          <mxGeometry y="180" width="150" height="30" as="geometry" />
        </mxCell>
        <mxCell id="SxVyRgGix0BMsTmsFQzA-9" value="" style="rounded=0;whiteSpace=wrap;html=1;fillColor=#fff2cc;strokeColor=#d6b656;" parent="SxVyRgGix0BMsTmsFQzA-2" vertex="1">
          <mxGeometry y="210" width="150" height="30" as="geometry" />
        </mxCell>
        <mxCell id="SxVyRgGix0BMsTmsFQzA-10" value="" style="rounded=0;whiteSpace=wrap;html=1;fillColor=#fff2cc;strokeColor=#d6b656;" parent="SxVyRgGix0BMsTmsFQzA-2" vertex="1">
          <mxGeometry y="240" width="150" height="30" as="geometry" />
        </mxCell>
        <mxCell id="SxVyRgGix0BMsTmsFQzA-11" value="[CLS]" style="rounded=0;whiteSpace=wrap;html=1;fillColor=#fff2cc;strokeColor=#d6b656;" parent="SxVyRgGix0BMsTmsFQzA-2" vertex="1">
          <mxGeometry width="150" height="30" as="geometry" />
        </mxCell>
        <mxCell id="SxVyRgGix0BMsTmsFQzA-12" style="edgeStyle=orthogonalEdgeStyle;rounded=0;orthogonalLoop=1;jettySize=auto;html=1;exitX=1;exitY=0.5;exitDx=0;exitDy=0;entryX=0;entryY=0.75;entryDx=0;entryDy=0;strokeWidth=3;" parent="1" source="SxVyRgGix0BMsTmsFQzA-13" target="SxVyRgGix0BMsTmsFQzA-39" edge="1">
          <mxGeometry relative="1" as="geometry" />
        </mxCell>
        <mxCell id="SxVyRgGix0BMsTmsFQzA-13" value="" style="shape=image;verticalLabelPosition=bottom;labelBackgroundColor=default;verticalAlign=top;aspect=fixed;imageAspect=0;image=data:image/png,iVBORw0KGgoAAAANSUhEUgAAAgQAAAFmCAYAAAAS1oJaAAAMP2lDQ1BJQ0MgUHJvZmlsZQAASImVVwdYU8kWnluSkEBooUsJvQkiNYCUEFrovdkISYBQYgwEFXtZVHDtogI2dFVEwQqIBUUUC4ti74sFFWVdLNiVNymg677yvfm+ufPff87858y5c+/cAUDtBEckykPVAcgXForjQgLoKalpdNJTgANjoAu8AIPDLRAxY2IiACxD7d/Lu+sAkbZXHKRa/+z/r0WDxy/gAoDEQJzBK+DmQ3wQALyKKxIXAkCU8uZTCkVSDCvQEsMAIV4kxVlyXCXFGXK8V2aTEMeCuA0AJRUOR5wFgOolyNOLuFlQQ7UfYichTyAEQI0OsW9+/iQexOkQ20AbEcRSfUbGDzpZf9PMGNbkcLKGsXwusqIUKCgQ5XGm/Z/p+N8lP08y5MMKVpVscWicdM4wbzdzJ4VLsQrEfcKMqGiINSH+IODJ7CFGKdmS0ES5PWrILWDBnAEdiJ14nMBwiA0hDhbmRUUo+IxMQTAbYrhC0KmCQnYCxHoQL+IXBMUrbDaLJ8UpfKENmWIWU8Gf5YhlfqW+7ktyE5kK/dfZfLZCH1Mtzk5IhpgCsUWRICkKYlWIHQty48MVNmOKs1lRQzZiSZw0fguI4/jCkAC5PlaUKQ6OU9iX5hcMzRfbnC1gRynw/sLshFB5frA2LkcWP5wLdokvZCYO6fALUiKG5sLjBwbJ54494wsT4xU6H0SFAXHysThFlBejsMfN+HkhUt4MYteConjFWDypEC5IuT6eKSqMSZDHiRfncMJi5PHgy0EEYIFAQAcSWDPAJJADBJ19jX3wTt4TDDhADLIAHzgomKERybIeIbzGg2LwJ0R8UDA8LkDWywdFkP86zMqvDiBT1lskG5ELnkCcD8JBHryXyEYJh70lgceQEfzDOwdWLow3D1Zp/7/nh9jvDBMyEQpGMuSRrjZkSQwiBhJDicFEW9wA98W98Qh49YfVGWfgnkPz+G5PeELoIjwkXCN0E25NFMwT/xRlJOiG+sGKXGT8mAvcCmq64QG4D1SHyrgObgAccFfoh4n7Qc9ukGUp4pZmhf6T9t9m8MPTUNiRncgoWZfsT7b5eaSqnarbsIo01z/mRx5rxnC+WcM9P/tn/ZB9HmzDf7bEFmEHsHbsJHYOO4o1AjrWgjVhHdgxKR5eXY9lq2vIW5wsnlyoI/iHv6EnK81kgVOtU6/TF3lfIX+q9BsNWJNE08SCrOxCOhPuCHw6W8h1HEl3dnJ2AUC6v8g/X29iZfsGotPxnZv/BwA+LYODg0e+c2EtAOzzgK//4e+cDQNuHcoAnD3MlYiL5BwuvRDgV0INvmn6cP8yBzZwPs7AHXgDfxAEwkA0SACpYAKMPhuuczGYAmaAuaAElIHlYA2oAJvAVrAT7AH7QSM4Ck6CM+ACuASugTtw9fSAF6AfvAOfEQQhIVSEhugjJoglYo84IwzEFwlCIpA4JBVJR7IQISJBZiDzkTJkJVKBbEFqkH3IYeQkcg7pQm4hD5Be5DXyCcVQFVQLNUKt0FEoA2Wi4WgCOh7NQiejxegCdCm6Dq1Gd6MN6En0AnoN7UZfoAMYwJQxHcwUc8AYGAuLxtKwTEyMzcJKsXKsGqvDmuFzvoJ1Y33YR5yI03A67gBXcCieiHPxyfgsfAlege/EG/A2/Ar+AO/HvxGoBEOCPcGLwCakELIIUwglhHLCdsIhwmn4LvUQ3hGJRB2iNdEDvoupxBzidOIS4gZiPfEEsYv4iDhAIpH0SfYkH1I0iUMqJJWQ1pN2k1pIl0k9pA9KykomSs5KwUppSkKleUrlSruUjitdVnqq9JmsTrYke5GjyTzyNPIy8jZyM/kiuYf8maJBsab4UBIoOZS5lHWUOsppyl3KG2VlZTNlT+VYZYHyHOV1ynuVzyo/UP6ooqlip8JSGaciUVmqskPlhMotlTdUKtWK6k9NoxZSl1JrqKeo96kfVGmqjqpsVZ7qbNVK1QbVy6ov1chqlmpMtQlqxWrlagfULqr1qZPVrdRZ6hz1WeqV6ofVb6gPaNA0RmtEa+RrLNHYpXFO45kmSdNKM0iTp7lAc6vmKc1HNIxmTmPRuLT5tG2007QeLaKWtRZbK0erTGuPVqdWv7amtqt2kvZU7UrtY9rdOpiOlQ5bJ09nmc5+nes6n3SNdJm6fN3FunW6l3Xf643Q89fj65Xq1etd0/ukT9cP0s/VX6HfqH/PADewM4g1mGKw0eC0Qd8IrRHeI7gjSkfsH3HbEDW0M4wznG641bDDcMDI2CjESGS03uiUUZ+xjrG/cY7xauPjxr0mNBNfE4HJapMWk+d0bTqTnkdfR2+j95samoaaSky3mHaafjazNks0m2dWb3bPnGLOMM80X23eat5vYWIRaTHDotbitiXZkmGZbbnWst3yvZW1VbLVQqtGq2fWetZs62LrWuu7NlQbP5vJNtU2V22JtgzbXNsNtpfsUDs3u2y7SruL9qi9u73AfoN910jCSM+RwpHVI284qDgwHYocah0eOOo4RjjOc2x0fDnKYlTaqBWj2kd9c3JzynPa5nRntObosNHzRjePfu1s58x1rnS+6kJ1CXaZ7dLk8srV3pXvutH1phvNLdJtoVur21d3D3exe517r4eFR7pHlccNhhYjhrGEcdaT4BngOdvzqOdHL3evQq/9Xn95O3jneu/yfjbGegx/zLYxj3zMfDg+W3y6fem+6b6bfbv9TP04ftV+D/3N/Xn+2/2fMm2ZOczdzJcBTgHigEMB71lerJmsE4FYYEhgaWBnkGZQYlBF0P1gs+Cs4Nrg/hC3kOkhJ0IJoeGhK0JvsI3YXHYNuz/MI2xmWFu4Snh8eEX4wwi7CHFEcyQaGRa5KvJulGWUMKoxGkSzo1dF34uxjpkccySWGBsTWxn7JG503Iy49nha/MT4XfHvEgISliXcSbRJlCS2JqkljUuqSXqfHJi8Mrk7ZVTKzJQLqQapgtSmNFJaUtr2tIGxQWPXjO0Z5zauZNz18dbjp44/N8FgQt6EYxPVJnImHkgnpCen70r/wonmVHMGMtgZVRn9XBZ3LfcFz5+3mtfL9+Gv5D/N9MlcmfksyydrVVZvtl92eXafgCWoELzKCc3ZlPM+Nzp3R+5gXnJefb5Sfnr+YaGmMFfYNsl40tRJXSJ7UYmoe7LX5DWT+8Xh4u0FSMH4gqZCLfgj3yGxkfwieVDkW1RZ9GFK0pQDUzWmCqd2TLObtnja0+Lg4t+m49O501tnmM6YO+PBTObMLbOQWRmzWmebz14wu2dOyJydcylzc+f+Ps9p3sp5b+cnz29eYLRgzoJHv4T8UluiWiIuubHQe+GmRfgiwaLOxS6L1y/+VsorPV/mVFZe9mUJd8n5X0f/uu7XwaWZSzuXuS/buJy4XLj8+gq/FTtXaqwsXvloVeSqhtX01aWr366ZuOZcuWv5prWUtZK13esi1jWtt1i/fP2XiuyKa5UBlfVVhlWLq95v4G24vNF/Y90mo01lmz5tFmy+uSVkS0O1VXX5VuLWoq1PtiVta/+N8VvNdoPtZdu/7hDu6N4Zt7OtxqOmZpfhrmW1aK2ktnf3uN2X9gTuaapzqNtSr1Nfthfslex9vi993/X94ftbDzAO1B20PFh1iHaotAFpmNbQ35jd2N2U2tR1OOxwa7N386Ejjkd2HDU9WnlM+9iy45TjC44PthS3DJwQneg7mXXyUevE1junUk5dbYtt6zwdfvrsmeAzp9qZ7S1nfc4ePed17vB5xvnGC+4XGjrcOg797vb7oU73zoaLHhebLnleau4a03X8st/lk1cCr5y5yr564VrUta7riddv3hh3o/sm7+azW3m3Xt0uuv35zpy7hLul99Tvld83vF/9h+0f9d3u3cceBD7oeBj/8M4j7qMXjwsef+lZ8IT6pPypydOaZ87PjvYG9156PvZ5zwvRi899JX9q/Fn10ublwb/8/+roT+nveSV+Nfh6yRv9Nzveur5tHYgZuP8u/93n96Uf9D/s/Mj42P4p+dPTz1O+kL6s+2r7tflb+Le7g/mDgyKOmCP7FcBgRTMzAXi9AwBqKgA0eD6jjJWf/2QFkZ9ZZQj8Jyw/I8qKOwB18P89tg/+3dwAYO82ePyC+mrjAIihApDgCVAXl+E6dFaTnSulhQjPAZtDv2bkZ4B/U+Rnzh/i/rkFUlVX8HP7L+E/fK3RYE9CAAAAlmVYSWZNTQAqAAAACAAFARIAAwAAAAEAAQAAARoABQAAAAEAAABKARsABQAAAAEAAABSASgAAwAAAAEAAgAAh2kABAAAAAEAAABaAAAAAAAAAJAAAAABAAAAkAAAAAEAA5KGAAcAAAASAAAAhKACAAQAAAABAAACBKADAAQAAAABAAABZgAAAABBU0NJSQAAAFNjcmVlbnNob3R5k/7OAAAACXBIWXMAABYlAAAWJQFJUiTwAAAC12lUWHRYTUw6Y29tLmFkb2JlLnhtcAAAAAAAPHg6eG1wbWV0YSB4bWxuczp4PSJhZG9iZTpuczptZXRhLyIgeDp4bXB0az0iWE1QIENvcmUgNi4wLjAiPgogICA8cmRmOlJERiB4bWxuczpyZGY9Imh0dHA6Ly93d3cudzMub3JnLzE5OTkvMDIvMjItcmRmLXN5bnRheC1ucyMiPgogICAgICA8cmRmOkRlc2NyaXB0aW9uIHJkZjphYm91dD0iIgogICAgICAgICAgICB4bWxuczpleGlmPSJodHRwOi8vbnMuYWRvYmUuY29tL2V4aWYvMS4wLyIKICAgICAgICAgICAgeG1sbnM6dGlmZj0iaHR0cDovL25zLmFkb2JlLmNvbS90aWZmLzEuMC8iPgogICAgICAgICA8ZXhpZjpQaXhlbFhEaW1lbnNpb24+NTE2PC9leGlmOlBpeGVsWERpbWVuc2lvbj4KICAgICAgICAgPGV4aWY6VXNlckNvbW1lbnQ+U2NyZWVuc2hvdDwvZXhpZjpVc2VyQ29tbWVudD4KICAgICAgICAgPGV4aWY6UGl4ZWxZRGltZW5zaW9uPjM1ODwvZXhpZjpQaXhlbFlEaW1lbnNpb24+CiAgICAgICAgIDx0aWZmOlJlc29sdXRpb25Vbml0PjI8L3RpZmY6UmVzb2x1dGlvblVuaXQ+CiAgICAgICAgIDx0aWZmOllSZXNvbHV0aW9uPjE0NDwvdGlmZjpZUmVzb2x1dGlvbj4KICAgICAgICAgPHRpZmY6WFJlc29sdXRpb24+MTQ0PC90aWZmOlhSZXNvbHV0aW9uPgogICAgICAgICA8dGlmZjpPcmllbnRhdGlvbj4xPC90aWZmOk9yaWVudGF0aW9uPgogICAgICA8L3JkZjpEZXNjcmlwdGlvbj4KICAgPC9yZGY6UkRGPgo8L3g6eG1wbWV0YT4KmAFDHgAAQABJREFUeAHsnQncVGP7x2/7a9/iVdki2YtQllSEtwWVZJckW0UpSyKSpShbkspS8haKEJVkKZRWEUKLIlSKqFTW/n3vv/O888xzzsycmTkz58z8rs9nnmfmrPf9u89y3dfyuzbZsFFMQPLXX3+ZlStXmtWrV5tVq1aZ2bNnm8mTJ9uzzZgxI6Cz6rBCQAgIASEgBKKFwI477mgOOOAAs8suu5jq1aubKlWqmJ122snsvPPOZrvttstJZzYJQiFACRg+fLgZN26cWbBggfnhhx/M0qVLc9IhnUQICAEhIASEQNQR2HzzzU2FChXM3nvvbQ499FDTsGFDU79+fbPlllsG1rWsKQQ//vij+fDDD83jjz9uXn31VbN+/frAGq0DCwEhIASEgBAoNgR23XVXc9VVV5lmzZqZgw46yGy99dZZhSBjhYAXf//+/c3TTz9t5syZY37//fesNlAHEwJCQAgIASEgBP6HAG6F448/3nTt2tXUqFHjfysy/YbLIB3ZGBew4aWXXtqw0c9BDII+wkDXgK4BXQO6BnQN5PgaOO+88zbMnDlzw8aYvXRe5aX2MaV+pfhjxYoVGxo1arRhoy9Dg5/jwZfyJeVT14CuAV0DugZir4GNFoMNd911V4pvcO/NfLsMBg0aZG644QZDzEAyIShi//33NxUrVjSHHXaYOfroo82ee+5pdtttNxs5SVSlRAgIASEgBIRAsSOwZMkSs2bNGvPdd9+Zb7/91kyYMMH+nz9/vlm2bFlK8Bx77LHmkUcese/alHaI2yhlhYDYgHbt2pkhQ4aY3377Le4wZX8S9NCyZUtTtWpVG/iQ7eCHsmfUEiEgBISAEBAChYHA33//bdatW2d++ukn884775gnnnjCzJo1K2HnNtlkE8NEe9iwYaZBgwYJt3VbmZJCgDWgTZs2NpXQ7SDOMmb/TZs2NRdeeKE5+OCDzaabbuqs0n8hIASEgBAQAkIgTQRQDqZPn24GDhxoxo4dmzCAf6uttjL33nuvfW9vscUWKZ8xqULw888/G8wQc+fOJd7A9cCc8MorrzQdO3Y0pEVIEXCFSQuFgBAQAkJACGSEwJ9//mkWLVpkWrdubTYGE3oei/fyxoBDg5t/s80289wudsVm3TZK7ILY78uXLzcXX3yxmTp1qqsygHmC1Id+/fqZSy65xGy//faGZRIhIASEgBAQAkIg+wgw4Sbt8KyzzrLxeF988YVlA44/Ey6Hzz//3PD/pJNOil/t+tvTQvDHH3+YI4880nz22WeuO7KwVatWZmNko1UEPDfSCiEgBISAEBACQiAQBLDeoxx8/fXXnsfv0aOH6dy5s+d6Z4Wnk79Lly4GzcNNyB7o06eP6d27t5QBN4C0TAgIASEgBIRADhCg5sG7775rrfRep0MhIO4gmbhaCJ566ilz2WWXue6LX2LEiBGmXr16ruu1UAgIASEgBISAEMgtAmT/EfzP+9kt3o8CSbgQCP73kjIWgnnz5iU0LUBRLGXAC04tFwJCQAgIASGQewTILOjbt6+59NJLXU8OxwGBiGvXrnVdz8JSCgHlinEVEEwYL1gGevbsac4444z4VfotBISAEBACQkAI5BkB+H5INzznnHNcA/ypQPzWW295trKUQjBgwADzwgsvuG5MhaW2bdu6rtNCISAEhIAQEAJCIP8I/Otf/7LB/lRDdBMIA3EduEmJQgDfwKOPPuq2jSlfvry5/vrrXddpoRAQAkJACAgBIRAeBHhn9+rVyxA3EC8wHz788MOucQYlCgFmBNIX4uXf//63jU4k71EiBISAEBACQkAIhB+BOnXqmJtvvtm1ocOHD3etj2AVgl9//dXccsstBgakeKlfv77Zd9994xfrtxAQAkJACAgBIRBiBCAWpLBgvKxcudJaCeKXW4UAbeHLL7+MX2d/Q2aQKu2h6wG0UAgIASEgBISAEMg5AjvttJMtSuh24gceeMBQSTFWNoWR8L///W/sspLvsBAmylks2VBfhIAQEAJCQAgIgVAhQCmBs88+27IOxzeMCsavvPJKqcWbUsnw448/LrWQH3vttZc5//zzyyzXAiEgBISAEBACQiAaCMBP0KlTJ9fGvv3226WWbzplyhSDUhAvRx11lNl5553jF+u3EBACQkAICAEhECEEatasaSpWrFimxTNmzChVRnnTxx9/vMxGLGjWrJmBjEgiBISAEBACQkAIRBcBsgXdGIZ/+OEH88Ybb5R0bJONJAYb1q9fX7KAL9tuu60tbERAQhiELIiFCxea77//3nzyySdmxYoVttzjqlWrwtA8taEIECCwdo899jCQfqBpH3zwwWafffaxHB0Kus3vBfDLL7/YSm9UeyNIioccy6BqlQiBWAQoHbzbbrsZGP34X7VqVRsnh4t8yy23jN204L6PGTPGnHvuuWX6xeTfISTcZOPaDfFbnHfeecbLchC/bZC/FyxYYPr162cotuSWEhnkuXVsIZAKAkcccYQtKNK0aVOrLKSyj7bJDgKzZ882zz77rOVvz84RdZRiRYDUenj+SdMrZM6d7bff3nWInWJIrgrB/fffb6644grXHYNeyOz/pZdeMqNHj7YlHcmCkAiBsCNQqVIlc8opp9iI3ho1ahhKhEuyj8B3331nTZwjR440EyZMyP4JdMSiRgDTOoQ+1AI46aSTCs5qcOGFF5pRo0aVGWOojKE6LqMQkKYwadIkc/jhh5fZKcgFvPgnTpxotTS3IMcgz61jC4FsIkCaz0MPPWTQxjFRSjJDgNkLFkImCTCvffvtt5kdUHsLgRQQ4B1ISj7Wg0K5j7t162aY8McL2QYoQGWeVvhVch07AClSixYtzAUXXOCa8RDfeP0WAmFGAH9c7dq1DcXCJJkjAKX61Vdfbc25UgYyx1NHSA0B4tVOP/10y+K7evXq1HYK+VaVK1d2bSGWN6SMXZOAQgKnciFo/dOnTzdUXyJgMBUh8IOAEAK5Cj0IJBU8tE1uEKA0ONcrn1QeDl999ZW58cYbDX7uu+++u6D9kkGNAJgTAY35NlXh2cBzgecDWVJYPCVCwEHg77//LnUfO75zZ338/8WLF9sYlXnz5plHHnnEBhZH+ZoiPoL2x/fbCdAvoxBwI+XCPMKDlWDBe+65JyWrQMOGDc0xxxxjXRlUckJx2XHHHePHT7+FQCAI/PbbbzZqHWXg008/teVD33zzTdeCYLENGDp0qDVxP/nkk2b33XePXaXvCRDAhUhA8YMPPphgq/9fxXMAi8yxxx5rCPLkoYdSgKUzF8+ypA3UBqFBwFHouY95yc+ZM8e8//77Ztq0aQnbOG7cONO8eXOrHHCNRVXIlEJpXrt2bakuLF++3P4uoxCU2iqgH9zsI0aMMLfeeqtZt26d61m4kStUqGDOOussy8WMEiARAmFA4Oijj7bNgPqTh8m9995rPvroozI3GRuhiU/YGPx25plnmueee876I8PQhzC3ActA//797fMhUTuhVW+50bpIZDjPCokQSAUBXopI9erVSzafOXOmnZyiGPz8888ly2O/wOhLNhHvLoj7omgpINg5kZJcJoYgFoAgvmOywbd6zTXXeCoDnBczK4EO/JcyEMRI6JiZIsAs9OSTTzavvvqqjdx1I/5wzvHZZ5/ZOJmlS5c6i/TfA4EePXoY6qh4CRaA3r17W0XrhhtukDLgBZSWp4wAL/gXX3zRjB071lx++eWe+5EFhwKKK7AQJecKwYcffmjNLsyu3OT444+3s6527dpJEXADSMtChwCKAdSguAfuvPNOT8rvWbNmma5duxrHXxe6joSgQaREYXGJN2nSNNyZJ5xwgoFg5corrzSkiCWa7YSgO2pCxBCgVDDKJjw8XlYnAls7duxYkNkuOVUIYBEjJcuJaIy/VtDMMKvCHiURAlFDgLgWLF/Dhg3zDMzF3PjYY49FrWs5ae8333xjunTp4nmuNm3aWCKiQw891HMbrRACmSKAkkkgK4rngQce6Ho4XAsEDRcaT05OFYJHH33UM4CQASBHkoJKUfTNuF41Wlh0CDCLrVWrlo2Od5th4B/v06ePjTkoOnASdBh6cpQp6IfjBb/nddddZ328KrgWj45+B4EASsH+++9vJ6iHHHKI6ynIgBk/frzruqguzJlC8NZbb5khQ4a44oRPBmVhhx12cF2vhUIgaggceeSRZtCgQa7NxmWAyXHlypWu64txIQ/XCR7Mg61atUoaYFiMmKnPwSNA3j6xBfvtt1+Zk5F5xLW5aNGiMuuiuiAnCgEpHp07dy5VZtEBDN8r2Qa54j5wzqv/QiBoBIiHIYDWjT+cIMOpU6cG3YRIHJ9MI9jTCDiOF9jTCCwmTkMiBPKBANksffv2deUSwbL19NNP56NZgZwzJwoBlMRffPGFawfINVYWgSs0WlgACOAKq1+/fpmeEDR33333lVlejAueeeYZQ0pXvDBJuOOOOzRZiAdGv3OOAG5AJrVuQlxQoUhOFAKir+OFOAHMplWqVFHMQDw4+l0wCOD/vummmyyRVnynYOkkcKmYhTLFAwcOdIWA5wOuF4kQyDcCvK9Q7t3iCYh7KRQrQeAKwZIlS8xrr71WZjwJDqLykkQIFDoCRCp36tTJtZu8DAstUtm1ox4LKXEOPWy8wAZHISOJEAgLArvuuqunlYA0+VQozcPSF692BK4QeJlTYG4jilMiBIoBAQp34YuMF3Kaizm48J133nHlHDjttNPiodJvIZB3BBo1amQcptL4xhQCWVGgCgFRmJCMxAspHcyYSNGSCIFiQIA6BrChxQuVPuFUL1aBjdRNzjjjDLfFWiYE8ooAwa1elm2U26hLoAoB7gI3cyiZBfturDEtEQLFggCV9yil6ibFmm0AjfO7775bBhJSvdx8tWU21AIhkAcEKKK13XbblTlzISj2gSsEVJeKl2rVqsUv0m8hUPAIuFkI6HSySmuFCgwFodwE94rSDN2Q0bIwIOBU241vC0ybUZecKwS4C6QQRP2yUfvTQaBSpUqGT7xMmTIlflFR/F64cKFrP+vWreu6XAuFQBgQICDezYIlC0GS0SF6mPKvsUIa1t577x27SN+FQFEgwLXvZiX48ccfDVXUik28Kj8ec8wxxQaF+hshBJjU1qhRo0yLSaHlXo6yBGohWLNmTRlsAFN85GVg0YIiQWCvvfZy7anbveK6YQEtfO+998r0xgufMhtqgRDIIwL77LOP69ndUmhdNwzpwkAVArc+Q/DARyIEihEBrASS/0dg/fr1ZaBwo3kus5EWCIE8I1CoMS45VwjyPI46vRAQAkJACAgBIeCCgBQCF1C0SAgIASEgBIRAsSEghaDYRlz9FQJCQAgIASHggoAUAhdQtEgICAEhIASEQLEhIIWg2EZc/RUCQkAICAEh4IKAFAIXULRICAgBISAEhECxISCFoNhGXP0VAkJACAgBIeCCgBQCF1C0SAgIASEgBIRAsSEghaDYRlz9FQJCQAgIASHggoAUAhdQtEgICAEhIASEQLEhIIWg2EZc/RUCQkAICAEh4IKAFAIXULRICAgBISAEhECxISCFoNhGXP0VAkJACAgBIeCCgBQCF1C0SAgIASEgBIRAsSEghaDYRlz9FQJCQAgIASHggoAUAhdQtEgICAEhIASEQLEhIIWg2EZc/RUCQkAICAEh4IKAFAIXULRICAgBISAEhECxISCFoNhGXP3NGQKjRo0y33//ve/z/fnnn2bixIlmwoQJvvfVDkJACGQXgddff9188cUXvg/6119/mc8++8y8++67vvfN1w5SCPKFvM5b8AhMnz7d1K5d2wwZMiTlvn7zzTemXbt25rrrrjPHHntsyvtpQyEgBIJBYOuttzannHKK6dWrl1m3bl1KJ2G7a665xjRt2tRss802Ke0Tho2kEIRhFNSGgkSgefPmZtmyZaZt27bm/PPPtzP+v//+27WvK1asMA888IA544wzzNChQ02NGjXMv/71L9dttVAICIHcIXD44Yeb3XbbzXTv3t3en8OHDze//fabawN+//13M2zYMNOoUSPzzDPPGJSJAw44wHXbMC7cPIyNUpuEQCEgcNhhh5n69esbTI6vvfaaGTdunKlYsaJr11AYli5dWrLunHPOKfmuL0JACOQPgZ133tmceuqpZv78+Wbq1KkGy1+lSpVcG9S6dWuDlQ93AXLllVeaHXbYwXXbMC6UhSCMo6I2FQQCm266qWnfvr3ZYostbH/++OMPs2jRIte+xSoDFSpUMEcddZTrdlooBIRAbhHYZJNNzOWXX15i+sfKt2DBAtdGLFy4sEQZ2GOPPcx5551n2D8qIoUgKiOldkYSgaOPPtpUq1bNV9sxTe64446+9tHGQkAIBIcAZv8mTZr4OsEFF1xgdtllF1/75HtjKQT5HgGdv6AR2Gqrraw/MdVOYoo87bTTUt1c2wkBIZAjBJjtcz+nIsQO4C6MmkghiNqIqb2RQgBzIQFGqZoNa9WqFSmfY6QGQ40VAhkggKUPd14q8u9//9sceeSRqWwaqm2kEIRqONSYQkTg4IMPTtlKQDDhZpttVogwqE9CINIIYP5v1qxZSn244YYbIpklJIUgpeHVRkIgMwRuvPHGkuBCryNVqVLF1K1b12u1lgsBIZBnBOAISZYOTDBhixYt8tzS9E4vhSA93LSXEPCFAEFJBBgmkltuuSXRaq0TAkIgzwjsuuuuNnMgUTP8Bh8mOlau10khyDXiOl9RIrDddtuZs88+27PvuBVOOukkz/VaIQSEQDgQaNmypSUccmsNQYdR5hCRQuA2qlomBAJA4D//+Y/nUWEmjBKBiWdHtEIIFDgC+++/v2da8BFHHGEgJIuqSCGI6sip3ZFDYJ999jEdOnRwbfell16qYEJXZLRQCIQLgZ122skQNOgm3N+kHEZVpBBEdeTU7kgigNsgnnTo5JNPNlWrVo1kf9RoIVCMCMBJsPfee5fq+kEHHWQpjkstjNgPKQQRGzA1N9oIYG7kweHIlltuaS677LKkGQjO9vovBIRA/hHAvUclw1hp2LBhysRFsfuF6bsUgjCNhtpS8Ahsu+225uKLLy7pJwrCcccdV/JbX4SAEIgGAo0bNzYo9I7wO+oihSDqI6j2RwoBGAsbNGhgYDJD6tSpY0hlkggBIRAtBMgMctwGlEjmE3WRQhD1EVT7I4fA7rvvblq1amXbTblUqiJKhIAQiBYCpBJ37tzZNvqBBx4oCLff5tEaArVWCIQLgZUrV5o1a9aYX375xVfDKleubPA5UhL5008/9bUvG8OWRrQztdpFdewbvkB3WLZsmVm+fHmg5yjkg2NFw0fPJz4AN9v9Xr9+vVm1apX58ccfS8oW+zkH9zHpxCgHfu/jcuXKGVyI22+/vZ9TBrqtFIJA4fV38Dlz5pg333zT1tresGGDv521dSkEuNGOOeYYc9ZZZ5Vano0fvMQnTpxoHnzwQfPuu+9mdMgxY8ZktH/58uVNx44dDWQpyShVMzqRdk6IwOrVq80TTzxhbrvttoTbaaU/BFCa27Zta2rXru1vxyRbL1682Dz11FOmd+/eSbZMbfW4ceNS29BlK1KOL7/88lC4HKQQuAxQLhcxw+RB8uqrr5qPP/7Y/P3337k8fcGf65JLLrF1zInkP+GEEzIy6/3+++9mxIgRZsCAAWbWrFmhwG7JkiU2J/rhhx825557rmnfvr21GoSicUXQiG+//daA/eOPP57WDLMIIMqoiyjMr7/+uqlZs6ZVfE855RSz+ebpv7Zmz55t+vTpY0aNGmXWrVuXUduytfOgQYPMsGHDDH3Dhcj/fImcl3lCHgvAJ598Ymex3bt3ty8YKQPBDMbLL79szjzzTDt7++2333yfhLFiBkhhk6uuuio0ykBsR3gx3X///TZjgetKEjwCvFx4UfXv31/KQIBw81z84IMPTPPmzc1DDz1k/vzzT99n4xhvvfWWnRQ8//zzoVEGnI7wXBo9erRNZezXr1/ericpBM6I5Pj/5MmT7cwVf6MkeAR4qfft29dcdNFF5ocffvB1QlwEmOWfffZZX/vlY+PvvvvOnH/++QaTqCQ4BKZMmWKwPuF/luQOgTvuuMPwwVrnR7A0YJqPgnTt2tU+q/LRVikEOUadFxMzi/r16/t+MeW4qQV5OsyPPXr0SHmW8ddff5l7773XPPfcc5HB4+uvv7aMaX4DHSPTwTw3FGULZWD+/Pl5bklxnh4rgZ/Ymy+//NIqybhnoyAoO7feequNJ+N9kUtJ3xmTy1YW0LmYbSrwKL8DSszGsccea33uyVry4Ycfmvvuuy/hZhQ0yUek8HvvvefZLiwFAwcO9ORc99xRK5IiMGTIELN06VLP7bbZZhtTvXp1z/VakRwBYmMWLFjguSEWO+i+99tvP89tWEEGEDPuRAIPyCGHHJJok0DWzZ071ySyEJPSSKxDhQoVAjm/20GlELihEuCymTNnWl+W2ylIs6HqHeUzY+lt3bbVMm8EeAh8/vnnNtjrm2++cd2wW7dupm7duiUEQa4bbVxIsJibENgEw+Bdd91lqlWr5rZJ4MtwfeC/RsFxM13jK6XYyhZbbBF4W4rlBIsWLTI9e/Z07S5KIRHx8NyTDirJDIEZM2bY+8stgJe0zqFDh9qZNGmKXsJz4O2333ZdTdrf7bffbq0HmQQquh48xYVjx441N954o6uLD8vG+PHjrTUqxcNlvJkUgowh9HcAL22VixMfNy8ZPcD9Yeq2NbP2U0891aYWYWKMFzRz8oYdxsD49c7v999/3/la6n+LFi3swyToPOlSJ437AcFRly5dbLnVNm3aGHKqY4UHyqRJk6ziE7tc39NHYPjw4Z479+rVy7JQem6gFb4QOProo21GDzNlt5c6qX5UHUyUbotS7BZITOVRFGlSk/MpsJYyocAFNX369DJNee2113KqECiGoMwQBLcAbXXq1KmuJyDTgFxbKQOu8KS1ECUL7RvikHjBdQPnQyKBa8AtOI+HyU033RQ4aUqitjnrmNnAoe7WR7YZPHiws6n+Z4gALxYv3/Utt9wiZSBDfN12R2G/++67XRV3FF6sgV7CPU6asJugSORbGXDahUsAS4WbEPOUy9gHKQRuoxDQMi+fWL169czpp58e0Fl1WEy4boL7JpF4BY01adLEMDsPi8BUiE/VTZIpPW77aJk7AmvXrrXpp/FreWnBASEJBgHw3WuvvcocHIsYfngvwQr4008/ua7mHg6ToJxg1XQTCOtyJVIIcoX0xvN4abO1atXKiGwjh12I5KmIy3ATcpsTCURRbnLUUUeZRH5Lt32CXuYVx0CWRKLApaDbVUjHJ5fdjSuEGd7WW29dSF0NVV9QeL0mTFgBvMSLrwCLGlTDYZKtttrKBjq7tennn392WxzIMikEgcDqflAvTS9sF6d766O7VAFe0R27KLRctSSiMErhbyOuyHyLFIIcjoBbcEsOT69TCQEhIASEgBDwREAKgSc0WiEEhIAQEAJCoHgQkEJQPGOtngoBISAEhIAQ8ERACoEnNFohBISAEBACQqB4EJBCUDxjrZ4KASEgBISAEPBEQAqBJzRaIQSEgBAQAkKgeBCQQlA8Y62eCgEhIASEgBDwREAKgSc0WiEEhIAQEAJCoHgQkEJQPGOtngoBISAEhIAQ8ERACoEnNFohBISAEBACQqB4EJBCUDxjrZ4KASEgBISAEPBEQAqBJzRaIQSEgBAQAkKgeBCQQlA8Y62eCgEhIASEgBDwREAKgSc0xtbSdit3mmAXrRICQkAICAEhEEkEpBAkGLZ3333XXHrppWbGjBkJttIqISAEhIAQEALRR0AKQYIxbNKkiVm5cqU56aSTDN+HDh1qvvrqqwR7aFUxIzB37lzz0UcfmTVr1hQzDOq7EIgsAh988IH58ssvzfr16yPbh0waLoUgCXodO3a0W7z11lvmqquuMnXr1rXKAdYDiRCIRQBL0umnn26aNm1qXnzxRSkGseDouxCIAAKvvPKKOfXUU80FF1xgxo0bV3SKgRSCJBdprVq1zBlnnFGyFRYDlINGjRqZhg0bmoceesh88cUX5o8//ijZRl+KE4Edd9zR/Pbbb2b69OnmsssuM3Xq1DHdu3c3H3/8sVm3bl1xgqJeC4EIIVC+fHmzatUq8/bbb5tzzz3XNGjQwNx3333m888/LwrlQApBkot18803N4MHDzZVqlQps+V7771nunbtak488URz5plnmgkTJkgxKINS8Sz4z3/+Y2bPnm06depktthiC7NgwQLzwAMPmNNOO80cffTRZuTIkcUDhnoqBCKIQJs2bazbD2swMmvWLHPPPfdYtzHWYawGhSxSCBKM7u+//27mzZtnX/Q77bST55b4m95//31rSahXr56599577SyR2aKkeBBAeWSGgZLIjOKxxx6z5sftttvOfPfdd6ZVq1b2wXLrrbfaB02x+imL54pQT6OGAIr8vvvua3r27GnmzJljevfubU4++WSz2WabWUswVgMU/DvvvNN88sknptCy0KQQeFyxBBDycK9evbpp1qyZmTZtmseWpRejUd511132Iqpdu7Z56aWXSm+gX0WBQLly5cz5559vRowYYWbOnGnuv/9+U7FiRasI9O3b1yoGWJXGjx9vUDwlQkAIhAuBChUqmNatW1vLHm4/lIDtt9/evgu4n7EMN2/e3GApLhSRQvDPSKLpoREyu9t///1tAGGmD2qO16JFC3PUUUdZMzImZEnxIYB1iZgCFETk2GOPtS4olEweKKeccoqNNfjwww+Lwk9ZfFeAehx1BFDwr7nmGrPPPvvYruAe5DvxZMSYEWuAZfizzz6LtIJf9ArBhg0bbMAX2h8BhAQJ/vDDD1m7fjE1kYaGtrnHHntk7bg6UHQRaNeunZ1VDBkyxCoGpDkRa4BpEnPkqFGj7DVZaObI6I6YWi4ESiNAoCEpio8++qipVKmSQZnv0aOHOeGEE8xZZ51lFQVcglG7hzcv3c3i+/Xmm29aUxCm/mwLWQj4nFA0dt99d3PTTTdl+xQ6XkQR2GqrrWwgKilOWJIIOMT0SFAiVqUjjjjCHH744eaSSy6xAYkR7aaaLQQKFoFtttnGXHjhhfY+xjLAPfzOO+/YeDKUBQKJ+Zx33nn2Xo4CEEWrEOAO6Nevn3URpDJQm2yyicGakEg23XRTQ+oZD/lbbrnF7Lfffok21zohYLbeemvrUsKthIwdO9ZeOwsXLrTRzs8884whUBWXw/HHH299mFidJEJACIQDAeIKcAPy+euvvwxcBrieUfSnTp1qrQgQ27Vs2dLGpBFkzLsijFKUCgF5prywn3/++aRjcuihh1of78SJE+0D2msHZnPnnHOOqV+/vqlcubIh4lwiBPwigC+SmAKyFF577TXzxhtvWPMjvsqqVauaXr16mZo1a/o9rLYXAkIgBwigrOMy4D7mHkY5GDNmjHn55ZfthyD15557zlqMc9Ac36courfW2rVrzfXXX2+effZZT7AwBfHw7dy5s52dQVf85JNPltkea8DBBx9s2rZta0mKttxyyzLbaIEQ8IsAqU9cf3yuuOIKe60y48CdsHz5cr+H0/ZCQAjkGAEsf7z8cf1dffXV5uGHH7ZpyMQahJmkrKgUAtgEySslFcxL9t57b9OnTx/r++GFT2DI2WefXYqG9l//+pe5+OKLrf/owAMPNJiAJEIgmwh8/fXXZvTo0dYvyUxDIgSEQHQQIJgQDhssA7gBYbONghSVQoCpBpOrmxDkRQAXVoHddtutZBPMPQwsSgDRpI0bN7Ya3y677FKyjb4IgUwRwPcILTb5zigCL7zwgqVQ5bh77bWXrZFw0UUXmRo1amR6Ku0vBIRAAAj8+eefZsWKFTbjAEWAbCGHfAyyI1yBBJnvueeeAZw9O4csGoXgm2++MTDEecntt99uSSgw9cQKrgLiAoj8Jmhk1113DW1ASGy7w/Qdlr7vv/8+0CYR64GrJ2rCQwTGs+HDh1v+9MWLFxvcWggvf6KYoUwlZRWlVSIEhEC4EMDyTGEz3NCTJ0823MMOSy2VcrmHeXdwD4c9tqwoFAKCCNHMfvrppzJXEjN/XASwysULUaK33XabgrjigfH5G8sMzF5BCox/KAVREB4gxKVQMfPVV181BKyiGCCQYpHLzPV43HHHRaE7aqMQKDoEHFp7gn5xCUBdj5CNdsABB9jYM4LMjzzyyEhhUxQKAfmhn376qevAXHfddTZGwG3lIYcc4rZYy4RARghgqcJFQIAg/xFoUElLgrMCK1TYZxIZAaCdhUDEEYBbYPXq1aVI7GAv5B4mhZh7OIrpwQWvEGB+pchMvKDJ4Qbo0qVL/Cr9zjICBGBys2RDsPbA7EcaHiVKwy6YDqGsZibh1MPAhcLDgoBUFIGmTZvaiGRlqYR9NNW+YkSAdwhxZNzD3LsI9zTZQFgAKHMOzwAWSpZFWQpeIYAeFtN/vMAvj3VAEjwCsDTyyURw9xBs9/jjj5slS5aYX3/91R4Ov1z79u0NQTthk9dff9088sgjlt/8559/LmkewUWkEx5zzDFmhx12iORMoqQz+iIEChQB3AJwgfTv399mCTAZcQQXNG49UgvDTDTktDfV/wWtEPAQJj7ATQgixF8rCS8CmNQ/+ugjS+yBNcDJwceVgzbOTckNSRxIGAQlhRRBIoyhLqXKoSO8/FEEGjVqZC0DUZ9JOP3SfyFQSAjwzoCGmHuYAEG+O0JMz+mnn27vY+IEwso26LQ3nf8FrRAQN7B06dIyuBC9DRWsJJwILFu2zPz3v/8tE4jIyx+GybAG28FK1qZNm1KgEmGMNaBatWqlluuHEBAC4UOgZ8+e1iIQ2zLeFVQ6DKMVMrad2fhe0AoBfmYiumMFrY469JJwIQB3P5G6ZAtQIMQJtkN5I+qemXVUgjwJDKSeBZULYbKUCAEhEB0EeEeQLkjcE3VEismSXNAKQazJ1rkcCdwir1uSXwRg8kJZw4pDnIfDHsnNSL49CsDll18emSphoIkFg4qF1LWQCAEhED0EeO5g0SvWwnQFqxCQEoIfN14OOugg68ONX67fuUGAfHuUAAIEp0yZUuJnJzCHaN3atWvbyHvY+aKWtsO1FS+wDxLU+u2331rugV9++cUylVWsWNHwIRZi2223jd9Nv4WAEMgDAmT9xAuxS1APk2HAf9gHKWBHoHSFChXsPRxPaBd/jKj8LliFAApYhzYydjCoSxCWILTYdhXyd5SANWvW2CCdoUOHWpcA/WUcePETrdusWTP7vRBwwN1BcBIFTbyCWp1+ohQQd0BqJmVUSYeVCAEhkF8EeGaRzfTAAw+YQYMGJWwM6cNXXXWVad68eeTr2hSsQuBVTAKzriS3CBBs17dvX8sfwJnh8sY/h58O83qh0UGj9KAMkKuMUDCL684hK8FVwsNm0qRJdtZBoCQ1MwhokrvBQqY/QiBvCKDQowjgysSyhxALxId7GKUdfhHo2Ml+gheFFHasnuzH/R5VKViFwBnI+IGBRapQBLcILxYuwDBbPRYtWlSiDGAiv+eee8xhhx1mCsXM5lxPxEW8+eab5tprr7WLcIEQncx/tzRDLFjUMOjXr59VDjBXQmeMUiBLgYOq/guB3CGAMvD888/bZxQuyzPOOMPGFBx//PGuLkxIi8iIeuihh+y9T80C7mFcClGUTaPY6EzaHMUCOF79pWATFJqYq9BUHbIer+3ztZzZcdWqVe3pyett1aqVufTSS+3L8Mcff8xXs7J+XuoTdOzY0R6XGuhPPfWUzVl2UwbYCCWOCoYvvviizUhg2b333lsmM4blEiEgBIJHgED0G264wZ7o5ptvtso6irpXPBPvk9atW1sLH8oACkIyN2HwvUj/DEWnEKQPVfj25EWDrxpKTV4szEQfffRRQwqfU20rDK3GNYA5jdkwGjcvQrToDh062DZjMSDmgziDKMtLL71kTYxQEXfv3t2aF5P1h6wK4ggo/sSsApwwQUqEgBDIPQJPPPGEfalj2bv++uttXE+yVnAPw1GAIgADbqyrIdm+YVsvhSBsI+KjPVyElNyEOIMofXxad999ty3WRJAeOf1hETRs8vOJJXjhhResv/yII46wFShZ5gQW4n+PqmKAUoNg/fCyCniNB8GVPIQQWNIkQkAI5B4BJlOkPV9wwQW+T16lShXTtm1bux+KfRRFCkEUR+2fNsOpULNmTXPnnXfaCH4CWvgNB/eHH35oLrnkEpvPD5/+/PnzXbMuct19XpT77LOPLSzFiw/+AWbUaNa4EzDXkXp4xx132D6QphcVgfccwXSYjkDFjARdKjqdtmkfIVAMCEyfPt3wXIWaOB0hWwjBUhtFKdigwigORiZtLleunOX2h2ubfFmC25htz5o1y34wheHLx38Pr34YghC58WAhhI2Q4kXEQdBmlJkBAwaYYcOGGfpFjET9+vXNbrvtlglEOduXfqUjYRiTdNqtfYRAISFAQG+65cejfg/LQlBAVzIXMq4D8mIxXWG6RjBHU1Vv3LhxVmnAj09ULKmZYYg1wGrw73//27oNRo4caf3ouBBoNya8m266ySoEpOfhBkF5CKOgvCBYaNKRdevW2d3Kly+fzu7aRwgIgQwR4Dm5YcMGAw9BOuLcwzzPoihSCKI4aj7bjEkeLgBy43nJYprv1auXNdVD1DRhwgSfRwxuc2bX1Bi/7777bPQ95Y6xIpBeCUEItKJYC3CDEFAZJqF+AeLFgZGsrQRaIo4fMtn2Wi8EhEB2ESCuCZ4QrKzpCFZOhMyDKIpcBlEcNZ9tZga+yy67WCYtlANM8pjmoRAmzYYAGtwI+L4bN25sLQxeaTY+T5325px/xx13tDEQDRo0sFkIuBAoh4xC06NHD+uno/gI6yktnG9zHW0gYJI0QvgW/GBIrARKDsQnjmKRNnjaMTIIzJ4927z66quBthcGPQLeJMkRIMXQKbLm96W+YsUKa3nFwkccVBRFCkEURy2DNuMbw2cPQROmbTTa22+/3RBMw4cZed26da3f/uijjw5FzW/SerAaUEKYNlNAiEBKAiVJ9eOB+vrrr+e9GuLJJ59sX+gEFFHpEMtGqjJw4EBLToTFJqqkJqn2Vdv9D4G5c+caxj5I4T6WQpAawqRvk6kFBwFkRH4qrMIhMm/ePJstFFW3nxSC1K6TgtuK2StMgVT34uXFTIUo+cmTJ1teA16wPEjg2cdEn4kws+eTTYllOcTfh98v37Lzzjtb1wyxG+BKpgSZA3vssYdn03AvDB482LpDKMsNJ4Mfy4LngbUiEgjgwsMql6pAd81MFKUdC1oiwRK4ePHiRJtoXRwCvMiJU+IexlKHcsC9nCig+ZNPPrHWStyyZHZBYxxVkUIQ1ZHLYrtxKWAx4IP/DKWAoL4ZM2ZY83ymCgH+fx5OxSAEdELA1KVLF2t5ueuuu0z79u0ttqQywWxGUCTkQ1TjJPsDIWUUlwP4wyfhJSgdscqQ13ZaHg0ESBPmk6qgYKIQEGibbPbaqVMnKQSpAhuzHe5TXH9gDHlat27dLB05dOvc3zwvf/jhB4N1h/grZ7Lz2GOPWaI1KMkT3cNUSUw3iyGmmYF8lUIQCKzROyhlenlBwQ0wderUrHagSZMmJdTFWT1wzMHCUFBk1KhRpmvXrjGtMvYF37t371LL3H44lMdu62KXwZtOaqlECAiB7CNAMDPxVYiTaUDwMsyjyQS68lQEAjO4WMIoUgjCOCo5aBMmdgp5MFvlRUaBnaVLl9ozE+lPZS+i3alKmKnsv//+hk+hCzOD2NoMpIBmW8I6s8h2P3U8IZAPBKgHE/Q9TExUWEUKQVhHJqB2oQjgV3znnXfM2LFjzZw5c6wJktMRzIZ7gA9BSEG80ALqVigOSwwAWQ9BisYkSHR17GJH4MYbbyypVhoUFrCyhlWkEIR1ZLLYLsryovkSAUtKHOU9nXoBvGBgMLzyyittEE2+U/ey2O2cHwrshF/OYdcJhUDWENh2220Nn2IVKQRFMPKk5hE5u2DBAuMwaWEBoAASkbT4s3IVqPbtt99a/gOsFJjY/YhT/MfPPtpWCAgBISAEUkNACkFqOEVmK6wBkNxAOuQw3y1atMi2nwj1gw46yBD8kmsiH/xy5Of3798/bSyjqBDAm7Bq1SqriGGlIYsA5YsP1gRSxxQXkPYloR2FQOAIMHFZvXq1ncBwL/OMxbJKVUTnHi6UVGEpBIFfTrk7Aal9lEMmW4AaAE5uPulJpBGedNJJZs8997TVvHLXKmNTdM466yzz1Vdf2dOimMB9QG5vodxIbniSfgjpDIGbPFBQ1FAQeJg4HxgNyV2G1EgiBIRAeBBAEeB5+swzzxiysHCzci8TjI0iTwox9zF8LS1atDDHHXdceBqfZkukEKQJXBh248IkH5Y0Qdj6CBJ0pEKFCgZebi5U8mpz5RJwzh/7/7nnnrPKAIoABYoorrT99tvHblJQ36FXhmDojTfesP3ioUHhI+ijiTBm3HDdfP3115ZtEUITKjpef/31druCAkOdEQIRQwALAPTF0KMzuUIIBOT5BbU4ReS4h9euXWvvX2KzUBwISMSKGeVnmxSCiF2ssc1lxg1RiZMuyDq4uMn7xxrAxQuJRr4FywWWgNtuu822N9/tCfL80CljDWEmAQsdjGfUWkAhYCx4mPDAwVIAeQkPErgFsCTADklFyqhWSgsSVx1bCOQKAZ5X1HfBIoCLlUkVFk2sArH3MJViv/nmG3v/DhkyxNx///12UoaCj/IfRZFCEMVR+6fNvFRQBvbdd19bnwAefAoUhc0nzUwZ85ofbv8oDgvWmlatWlllAOsM8RI8ULyEF3/VqlUtdS2cD8R6UIUSTvRCdqV44aHlQiDfCOBqpZ4BygCTKgqO4Wb1EmjJydKCLAxGUmK3qAcDy2EUJbwMCVFEM8dtZtYJXeaYMWOsdlqrVq3QKQMOJLzgcGMUsuC2gdccFw2ZHYmUAQcHcEFRevLJJ+0MBH/l8uXLndX6LwRKIdCyZUtLpSsrUilYsvaD5ymTLOoXQEmcSBlwTsoEDAsC5G7EbT300EPWneCsj9J/KQRRGq24tvJQoDAK/q10ZpRc/PAPwMkdtGAqDzNDVzb6P2XKFPtAwI+Iv9GPUEeCOALMkPBESISAGwK4n3BD4Q5MJjwfqJ9BDIskNQQorQ5TKzUM/MZdYVEgQJj4ICYEURQpBFEctSy1edq0aTYYkWIpQUqdOnXsi5KUu0IW5yGQLluhw4VOhTWJEMgUAaruUcG0EKLfM8Ui1f1R6kklxJWXjjiVDilWFkWRQhDFUYtYmzG7Ee+AOb2QxSmGki7TmUNpClYSIYD5mXRVODwcZlE/qBAAx8ut0C1zfjBJti3ZA1gz4RhIR5x7OKqTHwUVpjPqIdtn5MiRNj0mtihHKk2cNWuW3YwKX25RsX379rXBgKkcK9E2mMKpIEbAHFH1EiEgBLwRIDCNuCCIvGKFl02bNm0MNTPKly8fu0rfhUBWEJBCkBUY83MQiDO6dOliyPPPRHAduEm2tFwqHRJxT1svu+wyy5QImUehScOGDe2DnEjlSpUq+e7ezJkz7T4oUJLiQoB77b333rPpp07uezwClOGF34Kgtdq1a1vlANM2M1pJdhDgufT5559bfpfdd9/d90GnT59u9yHOI4oihSCKo/ZPm2HPmjRpkjUJwkdAyqEfUxdBhdTm7tixo61uGA8FqYLZEALliMIly6Bp06Y2V5dZjlNVkdlOKmZN8oDDLMRKMLN76623rOLj50GNqZJ0JXCAuElSPAjASzFgwACbKYSbgGA2riX4RPbbbz8bNLxs2TJbi4R7lvRUOCtQINiP7CI/11rxIOu/p4cffriBWGz27NmW3t3PEbiHsaoS4J2NsvF+zp2tbaUQZAvJPBwH8huKBJHzzszBjzJAcwmCQyE4/vjj7SeoLtx5552WTZHjk7f73XffmVGjRtmPn3NC5BNmQcHB/eLM4Cgglaq8/PLLhg8UxqQtSooHAbJKeJGgGGBBu/DCC62FKVZJdjgrUBadXHcCBnEhPP300zYXvngQC66npHUOGjTIdO3a1UAr7sc1Q+rwxIkTzXnnnWegi4+iSCGI4qjFtZkZhV9lIO4Qgf4kDSc2tz4dU1ygDczSwakayYwNZrMaNWqYN9980zDjSDQ2FDyiCFXr1q1tKhmKHWlPkuJAANrbnj17GgJSIcHBcpZIyHlnAkB8Aa64Pn36WCIr+Ct03SRCLrV11apVs/fwtddeay0vWPxw/yXCloBPtuvcubOtHAs9e1RFCkFURy5C7e7WrZutYRChJqfdVKpIYvrv3bu3pWnGjYM7Z9+NbJJYR4j8hgN9yZIllgcd2mL8jhdffLHNL6fgE64gLyGDIdHDyWs/LQ8nAtDcEhsA0x1kOH4EVkyCdEmVo54JtOWSzBGA8RU3J0oXLk4sqCwjW8pxb5L9AYHRF198YQmMGIMrrrjCWnjgfUh0D++www5p8cZk3rPkR5BCkByj0G6BSSsTMzqmsVxIlIt9+MFn/Pjx5sEHH7S7YLUh62P06NH2k+w4cKHzSSYoELw8JIWBwIIFC2xH2rVr5/slQdYBiicWKZTKoBQCqnRiCg9SiJU47LDDgjxFSsfGwoeShvBi//LLL80LL7xgP8kOQD0SPskENy3WxDCKFIIwjkqO2kRUO/z7NWvWdE07zFEzCuY0uEUmT55cMP1RR4JHAFMzkk5WCvvBcIk8/PDDNjjY/sjyH2J+YN8MUrB2hEEhIEOomO9hKQRBXuUhPzaBTFTXQwPGLCbJDAFMvl4pnJkd+X97+wly+t9e+hZ2BCAQSkdyQUtMDMyBBx6YcvOYZGAyx0WWLDMI60NstdaUTxLQhp06dbIFygI6vD1smGu6SCEIcuR1bIsABEgOCVJQkJCi5UauFNT53I7Lwy/ZA9BtPy0TAmFGgPgXP/U1ICCDiMwhUUrUN7KNKIseFiGGh0+xihSCAhh54ghIQfRLeYt2jhDp7DZDgfQkG6WU3377bZtjHSTUcnsEia6OHRQC5KtjpSMokGvYrwwfPtzuQvnsoIS8ej/FupysGgJgk+2XLs13UH0t9uNKIYj4FQCXAKlqRK47XPqpdol0QASeALdqiQQqERGbqVAv/PLLL8/0MAn3T6X6W8IDaKUQyAMCBAajELz44osGljy3+9CrWatWrbIpcqyHA0MiBDJFQApBpgjmcX+i2MldJuhn7733NuT3+3mgUPYYXx8Rr24vfj/HSgQDZUH5SISAECiNAERDZPu8+uqr5qCDDjIXXXRRSmmlTAAgwPrqq68sjfHBBx9c+sD6JQTSQEAKQRqghWUXgncw9+PjGzZsmPV9+aEwhTMf8pxbb73V1Vzptx54WHBRO4RAVBDg3qXGxw033GAoe839DEteItpwOCy4d6keCrshvvpsuPaigpnaGRwCUgiCwzbwI/MwgD+byHMeLH7FsQDg80v0APJ73Gxvf8kll9hDQtEqEQKFhAD0xOecc47lrCAYD8UePotTTz3VpiLCdMk2uAMJzIW3gJgcyIzKlStn3YXHHXdcIUGivuQRASkEeQRfp04NAR6QEiFQyAhceeWVNoYASwG58CgGCMyWjsRWHyXFlW3TmQg4x9N/IRCPgBSCeEQi9Jv0GPJm99prr7RaTaoeZCDp7p/WSbWTEBACZRDACkBRK9LwPvvsM/PGG29YFlJKnGMJxJpHRD5xBjASct/KTVAGRi3IEAEpBBkCmM/dCSJEIUhXGjdunO6uvvdjdgPtLmZPioGkI7CZuclTTz3ltljLhEDkECC4FxeA3ACRG7qCaLAUgoIYxv/vBDMJzI0U3JgxY4b1M1KkgxgBeM9r165tKleunHOLAExkzZs3t/7PTOCmBrxECAgBISAEgkFACkEwuOb0qAQWogRQWMfhRndrAIU7MDOef/75pn379oYa605godv22Vr20UcfWWWAwEXKilLIxI+507EMyBKQrRHRccKCAGRipBBmQ1D6JUIgEwSkEGSCXkj2JQDpjjvuKHmwkPNPsRRcCtRaRzp06GAWLVpkXn75ZUPt9Pfff9++nCnNG7TgE0UoD4pCkK6IfCVd5LRfWBGYMGGCue+++7LSPFKIwyAUXMIymW7BpjD0oVjbIIUgwiOPi4DCRDfddJPtxQknnGA5BapVq1bSK0chuPHGG+0ycp5hJsT8ft1111lq0VNOOcWmNpXsFNCXZDSmAZ0254clXoJccchm3nnnHUtLi3IGzsRtwEi35ZZb5rxdOmH4ECCdMFULAdcVFOXsQ/YBxYP8WNpy1XvKc6daoht3JjVIwkZhjELDBOq1114z7777rpkyZYq1bDIpoW9HHHFETqyruRoz5zxSCBwkIvh/xYoVlqmQpjP75gWfrLjOnnvuafr06WOGDBlievToYbp162bIdVYVvexdALBHUhc9torb6tWrrdsELoXLLrvMFnRxON+zd2YdKWoIYM078sgjU2o2VOPwEGAJIAsBdsLrr78+0vcucU3PPfecjXFKCYQcbITCdfvtt5sRI0ZYfgjnlJ9//rnh8+STT1pLJ9bOQlPspRA4ox3B/2+99ZZ9QNSqVctgAUiVXIgX0cUXX2xL9Y4ePdo+YPgdlJAJkUk2BMWboiA8SCgp3b17d9tcHtiwyJErzsMcdw0m4kcffdTOCtlu++23d+0aCgT+ZWZOboWnXHfSwsghABuoH0ZQ4m/q1atnTj75ZMto2KJFC0t9nEvq4g0bNhiuT6wVsKWi+P7666/2WsUSxqSDiYnXtR07SGGrEMo9xySpf//+1gLAZOnqq6+29O4Ug8PdOnPmTHPXXXfZPt9yyy2uVhqst2BEfBclqqOiOEghiL06I/bd8RleeumlKSsDThd5yVxwwQUGheC9996zCoKzTv/TQ4DZ28MPP2x3RhHo2LGjZZNzjsaDnBkGhZ5IwcSFEl/6FVcD3PYUvHEUAirZNWjQQIqBA2SR/4ezgCqJ3MMQGhGDgEUqFy8dCipx7eIOcxQCXn6xgkJAgOOFF15omjVrZrOcYteH+TsF3fr162ebiHu1devWpayu4I5CALvkY489Zt02jEGs4GpgPIjTYpKAQgCJFNagMLp4YtsuhSAWjYh9Hzt2rG0xL4t0xCk4hJ8sSMG1sXz58oxPwezDqWqIth5rOSCAKd8zaSwAFIs67bTTbJBnLMscnSejA0IZKlTCNPfAAw9YMhrGj9kE7gQeMhSrihWyLFDeePCHzdca2059zy0Cxx9/vCGAjziV2bNn29iUIFtAiWayk1BaEe45SqRzTbKOl9+xxx5r74FPP/3U3HzzzZZoiZch7YyCDB482DYTpd3Nqsk9XKNGDTNx4kQbS0D8FhUrsdJy76NMcIz45x3KEZaGzp07+7II5RozKQS5RrwIz0fNdkfrzqT7vEB52SKkWeKLd4TgSljc8im0CWHGEK8MxLaLYDBMkqR/kipKuwn0fOWVV6yJkQp4ZH9QhZIHLX7ioUOH2qAmt4dU7LH1vXgQ4BrjxcVMdOTIkYEqBMyKua556RFvdM0119ggWdyUWCYIlMV6gFKL+wAFhWJNH3zwgW3j888/bw444IDQD863335rLRpO/RSvBnNv3n///dYKgpvwwAMPNFjyiO1AuLfPOussGzBJQCKuBayHVapUsft4HTffy6UQ5HsEsnB+opRTjR+IPR2zbCSdfWOPk+w77GuYETOVWJMoprfYY8auy/Q86e7PzB9JJUiMKGWsBDxAyT6glDUPTIKZsBg4/BD4MJkJEtlM7AGKQmy/022r9isMBOrWrWs7gsJ4zz33BNIplAAqovKfmT4vNi+6c6x0fLA+oiTga0dZx62JmyHsmUYoMJj4eeEnk4XZEtEAAEAASURBVDp16lhGSTK2sBAsW7bMZh/gBiTGwxEw23///S0GcMGQacQ5wihSCMI4Kim2qWXLltY89fHHH6dFdTpt2jR7JsxZQQoshdmgSY596WOqJArYkaCVGuc8qfwnjSqZMLujoh0KAcoASgS+2QoVKpj4EtbMKjBTElcAp4MUgmToFtf6du3aBdphrFRffvmltVAxG+YaTUUIKqSUM3EzlGqePHmyVYJT2Tef26CMpxIQSXA2VgDSElEGUIKI/3HL9CIlHNzAAsUqrArBpvkEXufODAGKoSCYnVPNZXbOiHWgd+/e1jzGyyZI4cbhBsv0E5umxws19njOjDrIfqR6bHypiYSMA2b7BB46gisE5sh4ZYD1WEOYWRHdHVvxztlX/4sTAYL6oCjnmghSKSDomGh5rtdUlQFnRHjxsR+Bh7g2oiDcZ/Q3keAWuffee0vFGWDZI5jS7R7mWUU2CWMVH4SZ6Dy5XieFINeIZ/F85PDiu5o0aZJVClI9NKQbBMMQ+IOZmuNIMkegadOm9iDg6iUobqSIYlbE58oMCvMkUclff/216248QKh6JxECIDB//nzLQIqZGl81ZuggFcVnn33WAu9c335HAUsYQixR2IWgSLBcvHixZ1N//vlnQ7onCgGKA7ESCDEFXoXbeOYmmyh4njCHK6QQ5BDsbJ+KiHtyZtHamXGeffbZNo0wNvreOSdmaYLeIAHBhE+ZVXKXiWpHe5VkjoCTC47P1G2GwYOcGABymRk7Aq0IEoToBIsHD3fSnpihxApZB5htcUXgKpEUFwJk6TC7JjANEzXpq9y3zFKJcOd+jnWnZRsd51pON2XOsd5F4YVIbAQv7/Hjx7vCiHuWVEo4YFDkSf0mmJCAYBQJXKNuEwKCMglYJCYoFZei68lzsFAKQQ5ADvIUBLYQsc5Fho+OqGM3bnQuRAJdyI3HzFixYkXLVkiwSxiEGXN8Tn4Y2uWnDShkvOjxs1LQKVa++eYb++DG/Eq8AA8UcpoRgq+uuuoqM3fuXLvN4I1pSzyUEMpFN2nSxKZYEoS499572+X6U/gIzJs3z7KJEpRGnA8xJrxYMD3jIiDtmEBWXH/5TrktlNHgPsQiR6rkV199Vapb3NO88BkDnrvgz72L8BtFgXVYUkhBRkFAmUKZg0kW6wH7h3kCpqDCUkNe9ke6EfxljxTcEh4YaLTkI3ORul1wkJk40a74ujA3+mFIC671/3/kJ554wn5xWP6CPl8Qx4dFDncA7hgCPkm1JEOAKo0PPfSQ5ReATwA3QTxVNDnKCModFNTkcBNT4LgRUOawBklSR4B8eSwrPKzDHt1OrwhMI0WNIDWCz5yiYMTOYBWAwwL3HkqhW+Ba6sj42/LEE0+05GXMfGmDX6FPSMOGDf3umvPteUZitcP8j1uA+xG3KkoXdO+4C0i/xFpD9lSskCHEWJHxwf0PPwPbOLwNkBlBdBRmkUKQZHS4MZm58qCvWbOmNc3xcg2b8ILhZcPHmV3SRiLTuTB5uYjUJvhR42FBRDWzOR4ofEjTwmzKLMHNekOrUM6w3hBcyOyEPG7ITQjKYtbCujBlUgSPZOZn4J54++23LZkOD3lm2bxI0zV9Z96iskfAjM4LE5MzriZmp7QPFxLBvpBS1a1bN6/Ku6MQoLTDBeLn+ccs2WHvxD8fBUGhZ6YPzThWPwoaYbVjXKgqCzmTm3CvwieCFYDrDeZSgreZoKFAwJvCuIZZpBAkGR18tgTukQdOFUFuTny9LAvTgyW2G7HR+LgKJLlFgCAjHoTECDgPQ2IHeNEnE2ZgWHlQBggk5AUWPxNJdgyt/x8CWFqwnvFAxpVTvXp1S9ON1SAMqV9Qh/OCIW6EtvHSdKwAuPXCIDz7eCEyuXAU3VTahbJDWi1uL5QzLJNREOIxHn/8cZsdwbVD3xFm98lm+GQYkP2FMkGdBzDAnRsVZT58U10LfXj+oNGhFaMAEFDCA56cUooBodlDOSsRArEIMDMgaBNhdsCMatiwYZYrAoIWXk7MQBLJbrvtZslfpAwkQin5OlghUcYQTLe8gM877zw7+8aVQ+qeEzSX/GjZ3wLF0QkiJUjtkEMOsWx2vESc5dk/q78jophgpeLlhrsLsiGwpNZGvLANabUUPMKyyoyZlySVVaEej4KAO+4RJ7AQxZE+4D7AasNMHxzmzJnj2R3uea49OEOiogzQGVkIPIe09Ap8vB06dLALeYDA/4/GDO0saTX4jOD2zqUQfeykBGVyXiKXwzIbyaQf+d6XhyGzeywBPBSJ08BFgE/YKSLlsBnGMpnlu92FfH4e5ATgcb9CruMIaWXMzPEVQ/zEvc14ORHxznZB/+cFA789DHkEonF98OIkcwg3Hy5AMglQEPMptAPLY8+ePe3sGTxRrJxnotM2KH9Jp0VhcFxevEhxO0RBUHLIxHICnAkU5Dohm2DMmDE2IPvFF1+0XSHIt9CkjELAQ43B5IGWqbjNntG+MKWQghGkcFG6Cel36Qgvfcy3Dt0vx0C7x1/MBysCSgHaI8FlzAx5GAUpBCGheWcqBNIUq0KQ6Dr0yin2wpugTsekiAWJ2RFEJcz6iB/gXMw8CEwqV66c12GyuhyfNLM1rtWwiVubWJZoTNLtAzEYzHLjZ91kf/DhgU/2B75fzPZki+TCJUiAIJMNPjx3MTVjombMmIEy6SCDADcl7SOqnecQ8UBBP19iscZSigKA25SUR6yjtDFeiKgngJP2gTefIAM6Ubbd2kG70nnWwzRIDAGzepQdp6w8rmMUg4ULF9r0be7hIPsViytY+30Wxe4f+517i3d8vHz44Yc2/bmMQsAOBEX4CRyJP7jz260TBLzx0gz6ZvNSCOCNT1eS5fpyI6M9ksvKDUx+cJAvWmYNXKSpCA9CLmb4xBF8qMQXMCMqZipcp+KjG4bc9H6EGRHXN7NOZlSxWRzcTzz8c502iGKPBSgb97MfLFLZFgtXvJDqlWhM4rdP9TeKES/QeIUgdn983cxwuWeZ0RLQFzSLZ+z58bPz3CAaHWzgn0DJhJuCFxXPF6wHKJk8x8hgIdA5l4FqcG1wfTsxLk77ibDnGsPVgesDVxffg1ZavIJ0nXb5/c8zEjyxahBMGPvM51lZuXJl+/F73Ey2J0MpaMHFyaeMQoD2wAw+KOGGdHsQBHW++ONCDhOkYBVBs8fH1KdPHxvZTB45ZslsCw8HtFk/wo3bq1cvW76TmStVy9zSFP0cMxvbEqORD/GaXaTTFmYVkAxhZgyLcL8FeT9nu5+447I5Jn7bx/mxGJA6RtwHlkEUAwL+Yl8Ofo/rZ3tePLgL+HBe2oQVEsWAbARmvqS0QkaGnxo+C+JSYoOJ/ZzP77a8MOMpjInGLwRhksWkrljZW8soBIUwqGHpA1o02h0Rq2j/ubphE/WfGxmFgIAZfN2LFi2yD5d8t80JwkvU9rCvI2VQBDFhH6XU24cyRTlb3Ancv0SPu7k5Uj9ieluiIFAdE3M9rijclrCO4qaELIdIfkpk5+seRuHEIsvEAiUmyoKLo5jTs6UQBHz1Yj5zshIIGHLIRgI+bcLD466B6ASzI6U7yZ7IpWnUrXFhsFK4tcvPsihFE/vpVzFvi3keMzmZCrgy8mX9wRXFBANeFPzm1C8hmwXBUpgrlxAKERbQiRMn2nRCYgbisw3OPPNMixnWFeKpUGiiIsWsDDBGUggCulIJAELbZNbIQ4WXsOO/D+iUvg6L+ROiFgqO8IDJt0Lgq/HaWAgEjACBe8QTtNwYKEyMDfEg6QSpZdJMLBTEVPDyJf+fFEmsA8RDIAT5kdsPd0UuXmScH95+rBKJqqs6/mjcGihSuCV5BkrCj0AZhYCZGj6pfJmfsgUZF63bbJwI2XSEm5CgHvx4XoK5jChgHiTMvnMZ7OPVpkTLnfLJmB4xORajoBR5CbS3QceceJ07W8tRRJmxxQY4ZuvYUToOEfywFiYTAvUIBoZmN95PnmzfbKynnQQTUusCawBBhQhWAOqOEAiMf5vMIJSWXAkZTUTdUy8F5YM2oJBgAaVtWE8IIsdygRJD/AXR8bAbUpMB/pYgovIJKiQt002wqKDQRV3IViKWJBtC0KSTFh17PMYS5a2MQsBLDd5m0m6iLN26dXNVCC666KK0usWNQFEgN+GGID2FlwsP3iiZyNz6k+1lPEyCDmyDbzwd/z3RxF5y7bXXRl4hABMemlH37XqNUarLoZROJAQOUkMCJSBXwYNOe8gEQQEgFoDgQQK7Mc3jBkCZ42VbdyNDKpM1FLygI/eddjn/sQaQtskzEIHQiYkPbXHEcVlgTeEDpwNcD8Q8YOHgP9TM6dyjzjnc/hMY7RUASHxUIUg2S9RjqXF7P8GnQ/D7/0a0EJALsA9E9GLCcwQlgNgAyClwCwSh/TrnCur/ypUrgzp0qeNi7iRVKUghSNJrphDkeXXs8CNAnAwz1ljhxUSgHgRRpPnlq+onL0sqlDr1R+BA4IWKhYIXAd+dl21s+3P5HUInFBWecbgBUqlJQJuxHoA7s0/iHajPIddkLkfO/7mkEKSAGaxcsVHwmHCgoM2lyS6FZvreBBIUpFBShmxn9EcIxCDAi5asmlghv5z023Qq98UeJxvfMWs7ygBuOyyYYZtcwKJI7AJ1IXCp+BEUGmIIsKAqVskPcvnZVgpBEtzx6XEjYLrjg+muEMyvMFM5LIdOLEESKNJejTkWc1SqQqAU/sj33nsv1V3sTCrljbVh0SBAIC+EQ5i4ievBoociEGvuzicYWCaI2aK2Ba5aLJG8dMlsgBwJK0G+3beOdSXd8sW4DxDGolhjlfJ5jfk5txSCJGihvZOLTB5y2ATCEjc2SK92QpqE6Q7LwIABA+xmMG/xoAxSmPH4mfU4JtJ8mXGDxELHzh0CsK4SzIbvOqy1I8hGGjhwoM3jZyYOZwm+eoIJqc6IEOwFeyyBZQQq51qZIRYASZdl02FrLRSfvgWjQP9IIUgysPvuu2+SLfK3GnIScn3TFXzuWAnCqOyk2yftJwQcBGCdI1gv10GCzvn9/IfqF0sBFkgUmWnTptkofczslNHmg/JOXj8zbiweYS7B7qfv2jY8CEghCM9Y+G4JMwWCG/0KkdRw7TPrKARCIL/91/bFgUAUU6dpM5YxPtQ1wKpH4CGU2KSM8cFiiTDzJq2OKHuUg6CyD3hG0A4sBdRp8StOmeAg6Nv9tkXbJ0ZACkFifEK9lodGKrnVsZ3AHE9971ybHWPbUKjfeWgGTV7DrDcXJDSFOkZR6xcv49NPP90SEFFjAX4VXAqU2Yav4O677zaPPPKILZ/MfR2EUKmTLCGYVknF9SO4NbFuIBTZCrtAvuRVGC9bbUeRCytHjRSCbI1yHo7DS52KYukKFz60o2RLhPUCTbdv+diPoKk2bdoEempSOHlBSIoLAXLHK1WqZD9NmzY1d911lyUBIggRxSA2JTrbyBDky3meeeYZa40gXTMVoU2kLI4ZM8bGEJHdEXaBsyMRN0k22g9VPCmZYZRNw9gotSk3CHDxk3LoxuiYmxboLEJACKSDAK4FAiWhHqc6X5BWI15eBDZCLtauXTszevToMvUL4vuAZWDEiBHWpcF+ZBql426IP65+B4uALATB4hvqozOzmDt3bkJe8lB3IGSNI8ATU262BPcDUfIOXTaxH36yNbLVDh0neATI82fmSEAhQv4+PndSnGNjA5w6Bk4mDpYDJ4o/qFYSlAmPwK+//mrLL2MFI7ARzgSsB7EycuRI8/XXX1vOAVKbsWLCcujX1RB7zFx+p/4MsVXZEp6x8NaACYJyFebYFikE2Rp5HafoEcC/zycbgp8Y/zA88AhsmD179gytqTEbfS7WYzDGkPeQNeSY/nHhkeZHFlDNmjVLoPn0009tSXU4AeApyBUnCvEJd9xxhy0BTX0CqhzuscceZRQC6J8dgU+hdevWtp3OsrD/J6ssG5llWEgom834OWmbKFCdO3fO2Zilg7UUgnRQC9E+aJ6DBg2yDxOC2vwIRUgQiJfcApIIBnJb7ucc2tYfAitWrDBDhgwxDz74oI3s5qHLjOyyyy4L1Czsr5XaOlsI8LKAOplgNpRJiIi457AYUFzrlltusfS/TjYRcT+kUvJh+27dulllMReplbQLGmJiWChiFMuBQhok8Ui0A14Tsh7gWHDjzc8WdmE8DgodtVuIuYBTYv369VbBwEoCdrkYp0xwkUKQCXp53hcF4KabbrLmuUya4sxC44+BlivJHQJwvfOAh5SGBwszLOI8wkCxmzsUiutMr7zyiqGmCBlDuIdwE2BSpuAR67i/CSDs06ePBYbt+I0bifWY8nEfpMsimA7aKAZwJjjWDI5BFVnagYvAcWekc+yo70OFRywp/Edgt+U3AaFRECkEURgljzYyqyAgkNQkHgxU/vKTLXDPPffYC5f/bi8dWQc8gM/yYmZaQ4cOtQ8OKstBFNVyY345ftdiL1ucZahDdzgoi3mxXn311fYedOIFGHcCfgngw33EvU5GEdcGlQP54Me/9dZbDeXLqYiY62vFaSugZruKYegGKkmDsOhQBZKXP4LbgfuXCrhhjhmI75YUgnhEIvSbFwmBZ/gYKbbkVzN3ijMxK8HkJ8k9AgSR4VtEsaPkLYoZJDQw0vlR7nLfcp0xGwhAI47Uq1evVPAgyzC3Y55HacAMHZ9i3KxZM1tBkHRAyIqyGQzH+RMJVg3iCIh7oBIilOgEzB1++OG26iiVYPNdgyFR+7O5jtRKarVQqAqhGiTuAoKAo+YykUKQzSsjT8dCEfCrDOSpqTrtPwhgCXj66aftg4NYDh72MNMRlFWuXDnhVCQIOFkD8S97us8MvFq1aja6H1IiCh7FCi8brhkUAsp/B60Q/Pnnn/blT1AhMQy4NWIF5ZbYAoS2kYFwySWXmKOOOipyL8bYfnl9xypArADWPYrgYb2hv2Qq7LTTTl67hXq5FIJQD09hNI50pdgApGS9ch6SzIpSFR6oUZlRM7tq27atef311w19JcWMQjZEjUdtRpHq+Gi79BBw6H692PNwEyKQYjnFkNI7U/K9nn32WZtC55RrJgsC9kH4BQiWw8L1/fffW0ZDLAaUjYdJlbS7QiuxDrfC5ZdfbmmlQY7YDuIosLRGeXImhSD5fRDaLShOxA2YrpCdkAuB+QvqU79ClHKqwgwJPMIsTqDY7bffbk3AtPXKK680HTp0UIGpMA9cgG0jIp/0NF6gvFTihZcLs01M824S68d3W5+NZSit0BYTr4BQB4WIee43Nwp0smJoL1lKWME6depkJwTMnnPR3mz02esYTG5QjLp27VpiISGDgHuYAlVRFykEUR9BtT8SCOAiaN++vWVvo8GkkQ0ePNhmEkSiA2pkIAgQM4JCQJyAm0LASXnZOIRFgTQiyUFJhcU0jhC8jHUrkWDlQlno3r27/c8+/fr1s5kJUa6sSrwWsVpUoETIHKC0tte4JcIorOukEIR1ZAqoXdxEQfs3w0qLSurmyy+/bHkFIJUh4phgMLgfwtrmArr0Qt8VrgV4J/DLkyngRWxFxUNmpfHiFDc744wz4ldl7TdpsFgwCHDkXvYjuBRIkYTGGMWH7IioCS4Saohg6SRFm+wrAoFR1OAJKSSRQhDh0SSQ5aGHHsq4B9WrV7dc5RwIqs2BAwdaQg1+Y9KEkjcTwb/vFjSVyTGjsC9+X1wl5JcjpIUNGDDA5iZHof1qY/AI4IfHrI6PHQ4KZtXx0fncf6Sz4aOPjZPBfA3zHVK3bl37P4g/DnU2L/NtttnG1yloL+4FFIJp06ZFSiEgHfTnn3+22GPNw91B/1HgqCNRiCKFIMKjSm4yEcaZSuzLmkhiiqVwbATTdqYKQabti+L+pGQxo5s1a5ZtPn5XXAYwuEmEQCwCVatWtf52lAGKCDH7pKKgw2pH7AnmaXzzUAFTyIjAVBR3zNhcU0FWwORljhxzzDGxzU75uxMLNGrUKFuqOeUd87whQZFwtHz++ee2JWAPt0AhW/akEOT5osvk9OS53nvvvZkcwu4bW4oTcxjBQ8xGENKesi1o3jzkoPVEAyebAB87vAgUaoFoCaITt4ClbLcl28ejH1gBYJPDXUAxIoKO4KqXCIF4BJz0U17ujhJO0KmbkJ4K30CscK9wv+aCGCjdDJh094vtZy6/k05I3RCyBhDqRTjKWi7bkY9zSSHIB+pZOicvm2z75DBXYuILSpYuXWpvNHjaCVaKz5LAJIeCAtMXGjmzkqgoBkRW8/KHWQ4h/5oCRZUrVy552GeKKwqbM3PM9FjaP/8IEBvQq1cvqzym2hrGH0WdmTc++nh+glSPk+p2WCs++ugjmymQDnsprg2EOg1hFyx7uGGI90GgaL7hhhushcZR2DLtAxOfsCpJUggyHV3tnxICpC6RKw1FK8JLHgsHDzN865RKRVAE8L1TRpgP1J/coPF+VbtxyP7QB0cZoGlEjtevXz+rrSS4KUjzcFYbq4MlRQDTP5YkyGyoWxDGHPamTZtaheC9994rU90waQc3bvDBBx/YzYIOLE6lLcm2wU3gKANsO27cOPtJtp+f9ZS5jrXK+tk36G2lEASNcB6PD3kGL1fyY51qaflqDsoA6UcIPtMrrrjC1KhRw0bsYu6EqhchfoE2jxkzxgbzwAJG0Z9hw4ZFQimwndAfIZAiAo61B8UxjMoA3ahTp441m8PVT8Eth/I8lS4SoU+cE88gjiMJNwJSCMI9Pr5aRylkKEVnzJhhZ+Ox1QoxUTVq1MjUrl3bwDOeSw0Vnn7HMsCDr3fv3p5ZBzxs+EDYw4wCNjBm2lT9y0a8hC9AfW4MHz2KT5AStHk4yLbr2GURILsg7Cx+MGliOie6HvcGFrtUXAe4CvDDU6+BtMiDDjqoLAAhW8LzhudkkEJMQlhFCkFYR8ZHuwgA5GaFPIQAvdiypM5hUA6I8sUkhrXg+uuvtw8iZ4bibBfEf8g7EJQBCEpSDYAix7dHjx623juWg7Az+nGjh/lmD2JsdczCR4DUQXgzfv/9dzvbX7hwofWrE1vgJcTToMATI4E7hAybXDxrvNqT6nJIhgqJaCjVfjvbSSFwkIjof6L1H3zwQUuaQRcINKIsKrNVXk7MtjHBE8zHzYm2TnUytHyqdHXp0iXw8pz45HgYYCVIVRlwhgMmNx4m5PJHldjE6Yv+C4F4BAhUo3BRNiTRCzqT4zPTx2132mmn2dobw4cPt5UOIVLC0sgEg/sa9wAV/xxLJedktk1aM3S/iQRmQ6oESvKLgBSC/OKf8dm50TDLYQGA2ITqZ5jzYjnDUQrInaXwBqZ4ZtsoAvgECeLzyz7mt9FkFBA4mO4DCw50FALKAmc7q8JvX7S9EMgmAtDg3nLLLVk5JK65IGTx4sWuzwgYDJPJ6NGjDZ9k0qpVKykEyUDKwXopBDkAOahTwCqIm4CXbZ8+fZJGtKMkkLfcsmVLS7lJqV2sC1gUgkwJguyIc8eyrPnBhP4h5GxHTbDMkD8OQRGzQWZR9Ae+BWrHQyqTij82av1We1NDgOwZFPVUZPXq1WbOnDmWw4P7mBm1c2+ksn+623B9Bk1Oxr0QVuE5C3Uz2QFkheCiJT0alknaTVqxXwbHsPZVCkFYRyaFdr3yyiu2Dje5+lAM+xG2J08eLnSOQ0yBJLsIQFv8wAMP2AcI/tdYQUHCjYLJlTzn5s2bx67W9yJBgADfVE3lpO7i/oM5EKsgpnlicpwMnaAgQ3nNBkV6ovbFWjQTbZfLdUxAiGHCkooSEH8PkxXCPUygLymj2U4xzmVfnXNJIXCQiOB/x2SHq8AveQ/bcxGjEEyaNClQhYAHFjNlSIjgHvArTuQ+JCxREPK1b7vtthLaYtwyzCSYDTKjY6ZHSuiUKVPM3LlzbSYFfaRufC6zP6KAZaG3kZeKn3RDih8Ri4MiAUMhGQq8rIOsZcDLOqxEOkFcHw5nCqRi3J8IMQ4EG4I/lk4UM+5hnsFY/yBz4wPVcSwVfBDtC/KYUgiCRDfgY/MiRxyucL+nc8x0+PiDFNKNFi1aZEl7/KZYYWZ3+AuCNltmAwPcA/hDCa5CAYAClfRJtwhrZiBYEB555BGbAUKwJw+YnXbaKRtN0TEKFAFe0DAVkr6Lkkx8DfwAVNKUZI4ArgGoxnnpM4Eh1ZK0S7dJF8o9tMaPP/64ee6552ygNsp9VN2Am2YOn44gBBIjwAsRrZs0JKdyWuI9/n8t/naHe4BoZVwcYRYKzZDHjDJAn7G+4ApwUwboB35HgjvHjx9vKZpJ50KBIOZCIgSSIYDvmvuCGaozOUi2j9YnRuDbb781LVq0sMoAwdZkZoGxmzLAkYjl4J59/fXXzSGHHGLjDJwaCInPFM61UgjCOS4ptcoJ0kv3BeLs53Wxp9SIFDaClISbCpcBWRAwl1HYCCUhXsiWwFdHhTFqGbAtM2b87GEXoqkhUSKmgwJHqZj/MRfD3IilgGwQaq4TuCQRAskQwIzvuNHIHJJkjgDB2WRV8Lwi4BoXQTJhHIgDgTyNZxquBqc4XLJ9w7ZeCkHYRsRHe3hhIs8//7yPvf63KcGECBpx0MILD7pizOTELjRs2NDVWnDZZZeZZs2a2QcdrIu4NWhnlSpVgm5ixseHIRIhtdOv+RYfpZP+CYGURAikgoATkAjhmCRzBObNm2djBNq2bev7YMcdd1xJYTjqsERRpBBEcdT+aTOBRWin+K/8zirZnrx+9j/xxBMDRwHTGmVdidjF/4lpjtLH8YISQCAPL1TcBSNHjgw0JTL+/Jn8hi0SYVz8Rk1jKcB6gnTq1Mn+15/iRAArGWRAxM8sWbLE3isEsHHPsjzesobJmo8kcwSI4eHZkw5FOM9SOFMQAj6jKAoqjOKo/dNmigMRUEiVPV4ipLlREjmZUO+b7QliIw/emWUk2y8b60nNQQFZtDHIMLbgUteuXa0/DnZFh/0sqsF15cuXTwsqxkJS3AhQXY+KlsShcJ+iFOBew51EgSA+XCcoj9z/iKNIFjdy2es9L/ZUnqNuZ0xHkXA7Tr6WSSHIF/JZOC+RrHfddZd9IBDUAnkGEbFE9W+77balUoWcWQcc42iv0AnzkGEWzv9cCm3DRB4rTvGj2GX6LgSKBYH58+fbOBKH1Y/0VF7+5cqVs9Ym6pMQZAvdOIyEWM4IYL322mvtdsWCk/oZLAJSCILFN/CjE5D29NNPW/8z/i9yYWHQYnbNbJwIdwJc8Glhooc3nRkHD5qBAwfmPHIfkyfBhWjhpPT4rW0QOKAZnABXCClLuDzSiXmYPHmyPTspTpLiQYAgtgsuuMAWJoMEiEBBiMOwlmG+xv2Em4D7FjIilH/qCeDyg/NCpcGzd61UqlTJjgOumnQsfVBRIyeffHL2GpXDI0khyCHYQZ0K6tMxY8bYfGQeEA6ZxrRp00qdkqwELnKKlLRr166Uyb7UhgH8wPRJxoCTRsgpyNNvuZFGmbz9WBMd8QXQhVJ2lShfr7S9AJqZ0SFr1qxpFQKKMJES5odwhtnfoEGD7PnFWpjRMERqZ+6LNm3a2JcQ1wzMg4lcRygMuPgaNGhgOnbsaLD4sQ/1EPxcb5ECKYeNRZFHQSNb6PTTT/d1ZgrNEc+FNGnSxNe+YdlYCkFYRiLDdlC8iMAiAo8wKeISwCKAdYC0Ql64WBPIlcV6EHSqYWx3yM8nq4AbLVZYDssaVgvIVRwhJgJiEBi/ePjhFkF5CLvQR/y/PKCZIfip/04mBYQm7BMFAqawj0VU2kfMAPcq1iUCbrHcJRNe/ES0Y+EjfmDo0KE2syU2JifZMbTeHQFSpBkTnjnEZ6GApSpYapmQMUEjsDiKoiyDKI6aR5t5yTOjrlu3rrUAECtwxx13GAL2sAjUrl3bPnByqQzQ1JdfftkqAygltAUiFawAZBQwG4KbnW0cQREg3RC3Ai9KfKUEIYZd4B/gQU3fmCEQsexwPXi1fc2aNZbhDDZGTMIQGpGRISkOBJiJ4g646qqrUlIGYlHhHsG6xsxUaYexyKT/HasAJdexvJD+zPgku4cJ/kQ5g3/AyRZyOGLSb0l+9pRCkB/ci+qscPZzo3To0MHOZPCN8puI3CeeeMKWZob2kxciwksVJeGNN96wyg37x1oQwgoewZK4RVC8qN2AX/jcc881EyZMKFOpEesIfAM8gMh5xpoDDwFmYLCRFAcCTp2OOnXqpNVhh7sCng9J5ghgPWUSgiUVpQAFHaULencUr1jhHocDBssgCj00xhSJywWvS2w7svldLoNsopnjYxGg99FHH2V8VjTiIDMNeCESPMiNE/+yIwCS9ClSIJktsx2WAaKs+eBSOPPMM+2Nx83mx4SXMTBpHAA6YlwGN998s1UEsILwIQ6CftI3mBg/+OCDkqOTZkncAP3zS2hUchB9iSQCjhKMMpmOOLE3vIwk2UEA9yTuG+5h7lMUdz5Y7nAjEORJzA8TFUeIPbjooots1oezLIr/pRBEcdT+aTMRx9nIQUbLZVYelKC4kELlVukQBQHTHGlUkK/E+1Dxi5KSyM2J0hB2hQAMCYYkQJAUMf5jBUEJeP/990tBDB6wGl544YU2XiJeWSq1sX4IASGQMwSI5SGTg3gmsjn4jtLlZBE4DSErAXcPVoFCUOalEDgjG8H/zCpq1aqVcstXrFhhA5jYgYhmXki8hHJFAOTF3oeFgjxraI3dBMsCCgElhaNSc5w4DbgW4IWg7RQuwuQIHwTrsMjsu7EssuIF3Ea8eJaR8YNrjKyadJTdOXPmWLAwa0uyiwBxAGQOERtEaXKCn7mHiflgHdYZFAIsmYUiUggiPJKYmslB9iOU5yXNiRcUmi1+7qAF5YO8XtjX3IqFOFYB8vCJ0I2XqKQdxreb3yhBmCCjkCXh1n4tCxYBsmhQCKhWeM455/g+GVktiLgrfEOX8g5Mmoh74lPoouilQh/huP7tt99+hspoKAXUFmAGG3RlLlKqOAcuDi+pW7eu1yotFwIFiwAppmTV9O3b185A/XSU0ry42ghIDHtpcD/90rb5Q0AWgvxhn7cz42rAd01QDFHx5N76yZn323CCAlFCOFf16tXLBBZyPIJyYDB0EycAL+yshkQikxOeDaEMq6TwESColgwBUmup8QGpFUo7wadeQhoclTXxW2OuxpUW1TQ3rz7mazkKFkHQmQoWQSZcURMpBFEbsSy1l5crLgOCEnkIBakQ8KDDNfHSSy/Z2QwKSPwDDPcHbGvxVduI5h0wYIDtdZcuXbLU+2AOQy0Jp+JhpmeQQpApgtHZ/6STTjIPPvig6d+/v71PcCOcffbZNsaHFwsxJ9wHxABhZUO5JrgNrgvKhRN4u2rVKs8Ok/mSa+4Rz8aEfAXsrtm4h1H0pBCEfLDVvNIIOLnP99xzjyUuKr02e79QPqAs3mOPPUznzp1tqiScBCx3Ag2d1EeKu+A+YDkBeMRIMPPmoRb2gEIUn1QfJgQovfDCCzaWg8BCAg/hZYhXlLI3CjpSGBGA2c6hu+XlD2uhk+aWrL2QecUSenltD2mOYgy80Cm9nNTB448/vvRCj1/EYw0ePNhWpGTsmLAccMAB1roT1bgnWQg8BluLs4cAJs63337bBhbiriANb/z48baugjNzYRtS88jFh70QkynpirNnz7bfYVwMu0AfzSdVwUJDlPhjjz1mFYKmTZvaaGZSNCXFgcCyZcsMsQCScCDAxIRPqgKpGOnQTHiY7KBQQFKULq9EqucNajspBEEhG4HjOqQoQTcVbnB8pLGC6dMtyJC0Hsx2KATMnHnBcqPxsiw0QRmivoSjEOAaoaR19+7dbf8Lrb/qT1kESDuEuCpISadqX5DtKaRjY9EjLgouFxR8XH0EibZv3z6S3ZRCEMlhy06jHaKcIEmJaClmUISHH+WZUxFuNHyjfIoh3QcXCr5h0sgI+MQHKSl8BLAGySJUGOOM2w8K9kceecQGfDosklHqnRSCKI1WFtuKD9sJ4KtXr14Wj1z2UMyEiYYmaBAfm6QsAig9RItThArF4Lrrriu7kZYIASEQWgQIjCaQEPcmsVC4D6Im4iGI2ohl0F6YAKHTJTWOqH/817yIgi63C+EK50yHiS2D7kZuVxgZkUcffTRybVeDhYAQMDbzAxygO46iyEIQxVH7p82fffZZRi9zov7RZoOetbsF2xEwSBoVpUP5T0AhvjfiBjCh4iootoh7+h9k+meEL3U1XQhEAgFYV7mHgywWFyQQUgiCRDekxyZFhoJClOYloj+XQj41fjY0aKobEkTIf1IMSS0kFRH3AlXFKO0adHxDLvueyrmccripbKtthIAQCBcCZBdwDzvp1OFqXfLWSCFIjlFot2BmH1uCM5WGwsvN7DvXebIUBCHVkHLGH3/8sW0q7aA4CIoA7SL1EIsBbg2Kvbz22mu2FjmpiLkqwJQKhkFu41brIcjz6dhCQAhkDwGeY1G+h6UQZO9ayPmReKlHJRqdMqLUT8AigFWCNMSTTz7Z5us6XARUPKTmAbnZRNvDVwDxBxwGKAeY1MMscCbQzkylY8eO1lKS6XG0vxAQAv4QgLWVtOdMJeysql79k0LghYyWZw0BKitSnhVlAFcF2QbEL3gJ/jeidaE4Jtqe/aF1DftNRnrlfffd59WtlJejOOE6kQgBIZBbBFAIeNZkKmF/Vnn1r2AVAszQbgKr1OGHH+62SssCQgD6YQIHoU+Fs92xCCQ6HcRE1CGn8Auc7dyk5Op7jWuiY+VqHe29//77UzrdypUrrevEiRmAk75Ro0YWG8iJJEJACOQeAZ41qQZZ80ybOXOmLV9NS6+99lpzyimn5L7RWTxjwSoE8MK7CZH5UgjckAluGZjj3oDmMxVlILYlNWrUsEQ9sPjB8Z4qsVHsMXL1nQdJqg8Tp024R8aOHWsVJbjR+/Xr5xsj51j6LwSEQGYIUFiKjx8h3onCbaQL8x0a46hKwfIQHHLIIa5jQpUwSW4RoJzoVlttZapVq5bWiR3aY6wFhSbwQLRs2dLGS0yfPt3yoBNHIRECQiAaCMCvAqEYtMWQivXo0SMaDXdpZcEqBPvvv7+tKx7fZ+pdo8VJcosAaTjp8gpEtVCIH4ThQ7/wwgut+fGDDz7ws6u2FQJCIAQIECTduHFjW6HVoWsPQbN8NaFgFQJQoM54vJAH76S9xa/T72AQIBUHIYsgHXH28+tuSOdc+dqHmAmCCbk+gy52k68+6rxCoJAR4B4mzong6ahWsCxohYC61s7LyLkQyXWnDr0kdwjUqlXLcgx8//33aZ106tSpdj/HdZDWQSKwE1zoyMMPPxyB1qqJQkAIxCMArwpCzFMUpaAVgqOPPtr6ruMHZsSIEWbBggXxi/U7IASOOOIIO/OdMWOG7zPgT4ePgBiEE0880ff+UdpBsQNRGi21VQiURYAJZ5SloBUCSHtI5XITSszCpy8JHgEokqEm7t69u1m8eLGvE6JpT5o0yVAgqXLlyr72jdrGY8aMsU32G+UctX6qvUKgUBF4+eWXbdeYjEZRClohwOfcuXNn19z1WbNm2XSvKA5a1NqMGW3gwIFm9erVpn79+gbWQnzlieTnn3+2FRJJ4aFYCL65QhVonUnNhKEQgZNAIgSEQHQQYMKDBRSadeTiiy+OTuNjWlqwPAROH6HJPfvss82QIUOcRfY/1fU6depkqX/JdZcEiwClfSla1Lt3bxtNDxcEnAIoCxUqVLC59ygMZIAQ9EkBpPnz59sxgt0QHoMff/zRs5GwG+Y76HDRokWG1EE/guLzxhtvGGiP6R9FnRo0aODnENpWCAiBLCHw0UcfmXnz5vk6GvctlgFnvzp16pjatWv7OkZYNi54hQCgIcR5/vnny8xKf/rpJ/tyev311w1pivFCoR1eMsWQ9hbf92z+5uXOxxFwff/99+3HWeb1H+a/VNj/KJx06KGHeh0mJ8snT55sMwXSORkRyvvtt58lNRFTYToIah8hkDkCPKfSpS7mXXHYYYdZHgLu5yhKUSgEmJypsnf11VeXGSOY4iiz+8gjj5QhzsGsfcEFF5jWrVub0047TYpBGfRSW8CsPxsFQ1I7W/62ImblrLPOSqkBWKggyVq1apXdHsvA008/bSA5kQgBIZAfBCBPS/UeJr0Q6x7uAgQeAlyjUa7MWhQKAamHF110kQ1Oo4perJDjTjwBQWsEsJEi55ieKc9L6mKLFi0sJS3bUHAn3zPR2PZH4TsKVfPmzQNtaqJiSYGeOObgXDt8UhUUzm+++cZAloUygMIK/elee+2V6iG0nRAQAllE4Pzzzzd8UpX169cbKMefffZZawWlnkGvXr0MDKRRlKJQCJyBocoepC9LlixxFpX8J0eeCwEKyhtuuMH6rFlJcEjPnj2tf+juu++2D2yK2FCNL10q3pKTFskX/Pt8JKURIJWS2gdcb3Xr1rVKKdfok08+mTarY+kz6JcQEAJBIkBVUmjy77jjDnsPE++066672tokQZ43qGMXdJZBPGh77rmnNfE4BDDx69esWWNf/meeeaYZPHiwNediBqZCnyMEgeGvZiZIUNzQoUNdFQxne/0XAskQwIJVs2ZNG6FMAScxaSZDTOuFQLgQ4B6uV6+enVAOGjTIWg3C1cLUWlNUCgGQoAxgnk0k5L23b9/eprsRW4C52y03fPTo0TZgkXVYEShpKxEC6SJw1VVX2V1feeWVdA+h/YSAEMgjArw3EIdTJI9NSevURacQUGTnqKOOsmlebrUOHBTJDScNrkuXLgbLAillbkJACdkKuBNg5LviiivMO++8Y8Q654aWliVCwCn+hBIqEQJCIHoIOPcwwYVRlKJTCJxBIv+dVETM/qnI0qVLk26GYkBwCS4H8uzffPNNg2IhEQJCQAgIASEQdgSKViFgYCDK6du3r00V4QWeTSHVrmnTpjbQ5M4777RMdNk8vo5VeAhgWUKqVq1aeJ1Tj4RAESBAfBlCoGEUpagVAgaMSG+yC8gnxT2wzTbbZHUcSWmEnY8cVSwSEiHghsDy5ctLeDJEXeyGkJYJgXAjQKaaU5FV1MXhHqukrYMd7uabb7ZERCgHr732mpkwYUJGJn9SUurWrWtIRTnhhBNMnz590mbBStoBbZB3BHAZwSvgR9auXWu++OILm9UCSRaMmV4FufwcV9sKASHgHwEsuyjnfoQieWQGOfT4sBUyAYyiFBUPQSoDRBYCWh4fAglfeOEFQxoJfNWpVEeEc3+HHXaw9RM4RpUqVUpOS2qKpHARgAK7TZs2aXcQrgYqQpYrVy7tY2hHISAE0keAgN50qYs5K4REFGTDHR1FkUKQYNT23XdfmxtOBasmTZpYUqMEm1vXA2yGMBlyYUgBSISW1oEAwa1Qa1evXt0Go1KMSyIEhEB0EKAsOzEDlDzmPQF3TVRFCkEKIwffAAyH8QLFMdzz8BTgM6I4jaR4EaDuBR+JEBAC0UQAPhk+xSpSCJKM/MKFC41DGONsSiAi9Q0aN25sq1tBVSkRAkJACAgBIRBlBKQQJBk9WA2hKyboEBcCxY1atmxpKlSokGRPrRYCQkAICAEhEB0EpBAkGCtSBqlE17ZtW0tghEuAgEGJEBACQkAICIFCQ0AKQYIRJQ1s3Lhxpnz58gm20iohIASEgBAQAtFHQApBgjGsX79+grVaJQSEgBAQAkKgcBBQYnzhjKV6IgSEgBAQAkIgbQSkEKQNnXYUAkJACAgBIVA4CEghKJyxVE+EgBAQAkJACKSNgBSCtKHTjkJACAgBISAECgcBKQSFM5bqiRAQAkJACAiBtBGQQpA2dNpRCAgBISAEhEDhICCFoHDGUj0RAkJACAgBIZA2AlII0oZOOwoBISAEhIAQKBwEpBAUzliqJ0JACAgBISAE0kZACkHa0GlHISAEhIAQEAKFg4AUgsIZS/VECAgBISAEhEDaCEghSBs67SgEhIAQEAJCoHAQkEJQOGOpnggBISAEhIAQSBsBKQRpQ+d/x7322st1p7/++st1uRZmB4H169endaAddtjBdb9169a5Ls/nwrVr13qefquttvJcpxWZI8D1sGHDhswPpCN4IvDDDz94rvO7YsmSJX53ycn2M2bMcD3PZptt5ro8iIVSCIJA1eOY5cuXd13z5Zdfui7XwuwgsGjRItcD7bLLLq7LnYWVKlVyvpb6P2TIEPPnn3+WWpbvH2PHjnVtAg+TnXbayXWdFvpDYIsttjBuytXcuXPNsmXL/B1MW6eMAMruxIkTXbffddddXZezcLvttnNdN23aNDNv3jzXdfla+Msvv5hx48a5nn7PPfd0XR7EQikEQaDqccyKFSu6rhk5cqRZuHCh6zotzByBUaNGuR6kXr16rsudhaznJRAvc+bMMVOmTIlfnLffK1asML169XI9f/v27V2Xa6F/BLbZZhuzzz77lNnxjz/+MN27dzerVq0qs04LMkfggw8+cH0+7r777mbffff1PEG5cuXMEUcc4bp+wIAB5vfff3ddl4+Fzz77rFmzZk2ZU++2227mgAMOKLM8qAVSCIJC1uW4hx12mMtSY9AOO3bsaH799VfX9VqYPgKLFy82/fv3dz1A7dq1XZc7C3nYHHnkkc7Pkv8rV640HTp0MF988UXJsnx9wVx92223GS8rU/PmzfPVtII77+abb24aN27s2q/x48dbpcB1pRamjcCECRPM/7V35iFVfFEcP0pEYWEWZbT+IKFMEII2RaGk1RbSoqK0jaKyEiLabY82Kv8oKqJ9z5KKzMLUSqFNopQWCIuKNggi8p/8x35+74956bw785bee77383tA3ps7996583Fm3plzzzk3OztbdFNi+KFs2bKlbd9paWna/SdPnpTc3FztvkAXFhYWWl47uN50Vil/jbGFvzpmv84EYMLasWOHrFq1ymnno0ePZN68eTJ//nzp06ePREdHO9VhgXsE8CP59etXuXHjhmzbtk3bCKbG5ORk7b6GhampqQITo1mqq6tl9OjRMnnyZElJSZFWrVqZq/h9+/79+1JUVCRPnz7VHmv48OG2b1DaRiy0JYAH9N69e7UK2KVLlwTz07guevXqZdsPd9oTgNJdXl4uBQUF2jdntE5PT3epEEycOFG9EJj9BmDV2b59uzx58kTGjh2rtfzYj/Dv937+/FlKSkrk8uXL2s5at26triXtTj8VhtX328gbJiYmRoqLi8VubsZPY2kW3dbU1EhSUpK8fftWe74wUUPrDaQjiXYgIVxYV1cncNSsra0VfNfJjBkzZN++fRIebm8kw9ww7gk7wZujq37s2nu7z5XJEz9Qo0aN8rZ7trMggCmoWbNmCX5UdIJrgfevjoz7ZcY9bNViwIABShnGvWcn6AfTOXv27LGsFhYWpp0atGzgox3wQ7J6PuEQQ4cOFdzDvrQQVFVVyciRI52UrI0bN8qGDRvEnqaPTpzd/CEQEREhc+bMkZycnD+FDb7hIWP1oGlQjV//gkBsbKysXbvWrR9xWGpu3bolmZmZ8u3bN+1Rg83BEIOE78CwYcO042Xh3xGAbwlM0Xl5edqO8JC3e9BrG7HQbQJdunQR+AC4UgbQIZQzTMdWVFRIWVmZ9hiIEHGlXGsb+rEQ0yGY6vSlMuDOcO1fj9zpgXU8IoALFA/rhQsXetSOlX1DAI5huNHwUHFXEhMT1Ty9u/Wbuh5M1lu3bnXrgdnUYw3F40OpP3r0qMAcTQk8gd27d3vkaIfw4QMHDkiPHj0CP1gvjhgZGSknTpzw6Bnl7mHgi2H3AuOkECBmO9i0JXdPNpTqbdmyRWmuoTTmUB9r3759lQnOyvPY6vxgUszIyFBzfXFxcVbVmrwcXtUwjx4+fLjJx9IcBgCnNCj2UDIp/icwcOBAKS0tlXHjxnl8MESHYCocTrauHBE97txHDfCcGTJkiAo/jI+P91GvjbtBRJIuL4sR2uikEMAhiwpBY4j+2IIpaNOmTeqfj4uVc47+oPxfn2ANByTM/SKywJv5fpgnMfeG6YNFixapH4Fg+J/hIQKHRkwP4PyWLl3KvAP+u5Qa9RwVFSW7du0SeIkjPCzQ5t1Gg/mfbuC+Qx4NTPFdv35d4DvgrSAPDJTl48ePKyfCYPl/QUGBxRJjy8/PF3++dFjlX2jbtq3C6uRUiFI6I3l7yXnXDlm4kKUK2u/z58+VVzv9CLxjabRC0qGEhATp37+/jBgxQnypcWN+GFEM+F89e/ZMoHUjdDSQAudTPETgzQ6LBxwfg0FBCSSDYDoW7leEoVZWVgoiUMxe7cE01lAYC+5f5BlA2G/v3r1V1JU3irzVuSJnBBy7EUEE36APHz5YVfVbOd7KMT0waNAgdf8GwpEf4dKY7jILotxggdEqBKtXr5Y1a9aY23CbBEiABEiABEggRAnAyolwZbMgXwsUFKcpA1SEaYZCAiRAAiRAAiTw/yAAy5VOGUCKdocPQefOnZ3OFqZQq7kGp8osIAESIAESIAESCGoCd+7c0Y5v2rRpjvJwxMTrBI4yFBIgARIgARIggdAmgHDDs2fPak9i7ty5jvJweF/rEjxgwR3m1ndw4hcSIAESIAESCEkC79+/12bHxfo6/9Sv2WJIODIiIXe+WTBtgDkHCgmQAAmQAAmQQOgSwAs+1ocwCyILGko44g91sZ3IRYBsZ8xJ0BAXv5MACZAACZBA6BBASOXBgwe1Ax4zZkyj8nAkNsnKympUaGwgCcu9e/eMTX6SAAmQAAmQAAmECAEs8oYVX3V5UpDHxJz1UYUdInnL9OnTtaeITFy0EmjRsJAESIAESIAEgpbAixcvVDZc8wCRxOzYsWNOqzw68hCsW7dOZU0yN0QGIyy0QCEBEiABEiABEggdAlgzB5lUzYLsplg3wSwOhQDJCbD+slmwNOSyZcvk7t275l3cJgESIAESIAESCDICWNEwJydHrb2iG9qCBQu0a2+E1f/g/zYaID87FoDQCVaKg7WAQgIkQAIkQAIkELwEysvL1fLcWKzQLIMHD5YHDx6Yi9W2w0KALWQtPHLkiNO8Ava9fPlSWRCwEA+FBEiABEiABEgguAjg/R6BAFiWW6cMREdHy5kzZywH3UghQK2pU6eqVY90LbAiH5ah5Ep8OjosIwESIAESIIGmIQBlAAmIoAzg0yyIKMTS7Vgh1UqcFIKIiAg5deqUxMbGattcuHBBpkyZIp8+fdLuZyEJkAAJkAAJkEBgCZSVlUlqaqpg5UKdZGZmyvLly3W7HGWNfAgcpfVfSkpKJC0tTWpqahoWO76npKTI/v37pWvXruLLdaodB+AXEiABEiABEiABWwKw2D98+FCwLhH8AHXSr18/KS4ulvbt2+t2O8qcLATGHvzgHzp0SOuJiDqlpaWCLEfnz583mvCTBEiABEiABEggQATgJ7By5UrlQGilDMDaf/HiRZfKAIZsaSEwzgdOhph3sEtONHv2bBWa2L17d1oLDHD8JAESIAESIAE/EIBV4PHjx4LwwXfv3lkeAU6EBQUFguSD7ohLhQDxjHl5ecocUVtba9knpg5gMYC20qlTJ8t63EECJEACJEACJOAdgcrKSlm/fr1UVFRYTumjZ0wTnD59WpAyAA6F7ohLhcDoJD8/X2kjuqxHRh18Yo4CFoXx48dLt27dpE2bNg138zsJkAAJkAAJkICbBOrq6uTHjx+CFYivXLmiUgO4agqLwLlz5wSrGXsibisECGmAaWLChAlSVVXl8hhRUVHSoUMHycjIkOTkZMtQRpcdsQIJkAAJkAAJNDMCv379EiQYunr1qiCCAD4CKLMTWAKWLFkimzdv1i5FYNcW+9xWCIyOMKgVK1bItWvX5OfPn0axy8+OHTtKQkKCYE6jZ8+egvBGJEKikAAJkAAJkEBzJ/DmzRvlq4ewQeQRgON83OUKAAABUklEQVS+J4LlBxYvXizZ2dnSokULT5r+qVv/5u+x1PsV/K7XWH7HxMQg7TH/yIDXAK8BXgO8BngNNNE1MGnSpN9fvnzx+Lfc3MBjC8EfVUIEToY7d+5UoYevX78WzHVQSIAESIAESIAE/EsAVvbExETJyspSU/m+ONpfKQTGABALWVhYqAbGtQ4MKvwkARIgARIgAd8TwMrEubm5EhcX5/30gGZYPlEIjH6hGBQVFcnt27eVM8SrV6+47oEBh58kQAIkQAIk4AWBdu3aSXx8vCQlJUl6eroKKfRHhmCfKgTm8/z+/bsKfbh586ayIJj3c5sESIAESIAESMCZAEL2630DZObMmUoR8NpR0LlryxK/KgTmo378+FGqq6tVcb0DhPJBMNfhNgmQAAmQAAk0NwII1Y+MjFS5fBCB1xQJ/gKqEDS3fzDPlwRIgARIgARChcC/DDU7B5MleVsAAAAASUVORK5CYII=;" parent="1" vertex="1">
          <mxGeometry x="230" y="198.76" width="201" height="139" as="geometry" />
        </mxCell>
        <mxCell id="SxVyRgGix0BMsTmsFQzA-14" value="Output" style="text;html=1;strokeColor=none;fillColor=none;align=center;verticalAlign=middle;whiteSpace=wrap;rounded=0;" parent="1" vertex="1">
          <mxGeometry x="483" y="60" width="130" height="30" as="geometry" />
        </mxCell>
        <mxCell id="SxVyRgGix0BMsTmsFQzA-15" value="" style="rounded=0;whiteSpace=wrap;html=1;fillColor=#fff2cc;strokeColor=#d6b656;" parent="1" vertex="1">
          <mxGeometry x="40" y="365" width="150" height="30" as="geometry" />
        </mxCell>
        <mxCell id="SxVyRgGix0BMsTmsFQzA-16" value="" style="rounded=0;whiteSpace=wrap;html=1;fillColor=#fff2cc;strokeColor=#d6b656;" parent="1" vertex="1">
          <mxGeometry x="40" y="395" width="150" height="30" as="geometry" />
        </mxCell>
        <mxCell id="SxVyRgGix0BMsTmsFQzA-17" value="[SEP]" style="rounded=0;whiteSpace=wrap;html=1;fillColor=#fff2cc;strokeColor=#d6b656;" parent="1" vertex="1">
          <mxGeometry x="40" y="425" width="150" height="30" as="geometry" />
        </mxCell>
        <mxCell id="SxVyRgGix0BMsTmsFQzA-19" value="" style="rounded=0;whiteSpace=wrap;html=1;fillColor=#e1d5e7;strokeColor=#9673a6;" parent="1" vertex="1">
          <mxGeometry x="473" y="185" width="150" height="30" as="geometry" />
        </mxCell>
        <mxCell id="SxVyRgGix0BMsTmsFQzA-21" value="" style="rounded=0;whiteSpace=wrap;html=1;fillColor=#e1d5e7;strokeColor=#9673a6;" parent="1" vertex="1">
          <mxGeometry x="473" y="215" width="150" height="30" as="geometry" />
        </mxCell>
        <mxCell id="SxVyRgGix0BMsTmsFQzA-23" value="[SEP]&lt;sub&gt;new&lt;/sub&gt;" style="rounded=0;whiteSpace=wrap;html=1;fillColor=#e1d5e7;strokeColor=#9673a6;" parent="1" vertex="1">
          <mxGeometry x="473" y="275" width="150" height="30" as="geometry" />
        </mxCell>
        <mxCell id="SxVyRgGix0BMsTmsFQzA-25" value="" style="rounded=0;whiteSpace=wrap;html=1;fillColor=#e1d5e7;strokeColor=#9673a6;" parent="1" vertex="1">
          <mxGeometry x="473" y="305" width="150" height="30" as="geometry" />
        </mxCell>
        <mxCell id="SxVyRgGix0BMsTmsFQzA-27" value="" style="rounded=0;whiteSpace=wrap;html=1;fillColor=#e1d5e7;strokeColor=#9673a6;" parent="1" vertex="1">
          <mxGeometry x="473" y="335" width="150" height="30" as="geometry" />
        </mxCell>
        <mxCell id="SxVyRgGix0BMsTmsFQzA-29" value="" style="rounded=0;whiteSpace=wrap;html=1;fillColor=#e1d5e7;strokeColor=#9673a6;" parent="1" vertex="1">
          <mxGeometry x="473" y="365" width="150" height="30" as="geometry" />
        </mxCell>
        <mxCell id="SxVyRgGix0BMsTmsFQzA-31" value="[SEP]&lt;sub style=&quot;border-color: var(--border-color);&quot;&gt;new&lt;/sub&gt;" style="rounded=0;whiteSpace=wrap;html=1;fillColor=#e1d5e7;strokeColor=#9673a6;" parent="1" vertex="1">
          <mxGeometry x="473" y="425" width="150" height="35" as="geometry" />
        </mxCell>
        <mxCell id="SxVyRgGix0BMsTmsFQzA-33" value="" style="rounded=0;whiteSpace=wrap;html=1;fillColor=#e1d5e7;strokeColor=#9673a6;" parent="1" vertex="1">
          <mxGeometry x="473" y="125" width="150" height="30" as="geometry" />
        </mxCell>
        <mxCell id="SxVyRgGix0BMsTmsFQzA-80" style="edgeStyle=orthogonalEdgeStyle;rounded=0;orthogonalLoop=1;jettySize=auto;html=1;exitX=1;exitY=0.5;exitDx=0;exitDy=0;entryX=0;entryY=0.5;entryDx=0;entryDy=0;" parent="1" source="SxVyRgGix0BMsTmsFQzA-35" target="SxVyRgGix0BMsTmsFQzA-74" edge="1">
          <mxGeometry relative="1" as="geometry" />
        </mxCell>
        <mxCell id="SxVyRgGix0BMsTmsFQzA-35" value="[CLS]&lt;sub&gt;new&lt;/sub&gt;" style="rounded=0;whiteSpace=wrap;html=1;fillColor=#e1d5e7;strokeColor=#9673a6;" parent="1" vertex="1">
          <mxGeometry x="473" y="94.99999999999999" width="150" height="30" as="geometry" />
        </mxCell>
        <mxCell id="SxVyRgGix0BMsTmsFQzA-37" value="" style="rounded=0;whiteSpace=wrap;html=1;fillColor=#e1d5e7;strokeColor=#9673a6;" parent="1" vertex="1">
          <mxGeometry x="473" y="155" width="150" height="30" as="geometry" />
        </mxCell>
        <mxCell id="SxVyRgGix0BMsTmsFQzA-39" value="" style="rounded=0;whiteSpace=wrap;html=1;fillColor=#e1d5e7;strokeColor=#9673a6;" parent="1" vertex="1">
          <mxGeometry x="473" y="245" width="150" height="30" as="geometry" />
        </mxCell>
        <mxCell id="SxVyRgGix0BMsTmsFQzA-41" value="" style="rounded=0;whiteSpace=wrap;html=1;fillColor=#e1d5e7;strokeColor=#9673a6;" parent="1" vertex="1">
          <mxGeometry x="473" y="395" width="150" height="30" as="geometry" />
        </mxCell>
        <mxCell id="SxVyRgGix0BMsTmsFQzA-42" style="edgeStyle=orthogonalEdgeStyle;rounded=0;orthogonalLoop=1;jettySize=auto;html=1;exitX=1;exitY=0.75;exitDx=0;exitDy=0;entryX=0;entryY=0.5;entryDx=0;entryDy=0;strokeWidth=3;" parent="1" source="SxVyRgGix0BMsTmsFQzA-7" target="SxVyRgGix0BMsTmsFQzA-13" edge="1">
          <mxGeometry relative="1" as="geometry" />
        </mxCell>
        <mxCell id="SxVyRgGix0BMsTmsFQzA-65" value="premise" style="text;html=1;strokeColor=none;fillColor=none;align=center;verticalAlign=middle;whiteSpace=wrap;rounded=0;horizontal=0;" parent="1" vertex="1">
          <mxGeometry x="-30" y="185" width="60" height="30" as="geometry" />
        </mxCell>
        <mxCell id="SxVyRgGix0BMsTmsFQzA-66" value="" style="shape=curlyBracket;whiteSpace=wrap;html=1;rounded=1;labelPosition=left;verticalLabelPosition=middle;align=right;verticalAlign=middle;" parent="1" vertex="1">
          <mxGeometry x="10" y="130" width="20" height="140" as="geometry" />
        </mxCell>
        <mxCell id="SxVyRgGix0BMsTmsFQzA-68" value="" style="shape=curlyBracket;whiteSpace=wrap;html=1;rounded=1;labelPosition=left;verticalLabelPosition=middle;align=right;verticalAlign=middle;" parent="1" vertex="1">
          <mxGeometry x="10" y="305" width="20" height="115" as="geometry" />
        </mxCell>
        <mxCell id="SxVyRgGix0BMsTmsFQzA-69" value="hypothesis" style="text;html=1;strokeColor=none;fillColor=none;align=center;verticalAlign=middle;whiteSpace=wrap;rounded=0;horizontal=0;" parent="1" vertex="1">
          <mxGeometry x="-30" y="347.5" width="60" height="30" as="geometry" />
        </mxCell>
        <mxCell id="SxVyRgGix0BMsTmsFQzA-73" style="edgeStyle=orthogonalEdgeStyle;rounded=0;orthogonalLoop=1;jettySize=auto;html=1;exitX=1;exitY=0.5;exitDx=0;exitDy=0;entryX=0;entryY=0.5;entryDx=0;entryDy=0;" parent="1" source="SxVyRgGix0BMsTmsFQzA-74" target="SxVyRgGix0BMsTmsFQzA-79" edge="1">
          <mxGeometry relative="1" as="geometry" />
        </mxCell>
        <mxCell id="SxVyRgGix0BMsTmsFQzA-74" value="Feedforward" style="rounded=0;whiteSpace=wrap;html=1;fillColor=#dae8fc;strokeColor=#6c8ebf;" parent="1" vertex="1">
          <mxGeometry x="650" y="92.5" width="120" height="35" as="geometry" />
        </mxCell>
        <mxCell id="SxVyRgGix0BMsTmsFQzA-75" value="contradiction" style="text;html=1;strokeColor=none;fillColor=none;align=center;verticalAlign=middle;whiteSpace=wrap;rounded=0;" parent="1" vertex="1">
          <mxGeometry x="900" y="65" width="70" height="30" as="geometry" />
        </mxCell>
        <mxCell id="SxVyRgGix0BMsTmsFQzA-76" value="neutral" style="text;html=1;strokeColor=none;fillColor=none;align=center;verticalAlign=middle;whiteSpace=wrap;rounded=0;" parent="1" vertex="1">
          <mxGeometry x="900" y="95" width="40" height="30" as="geometry" />
        </mxCell>
        <mxCell id="SxVyRgGix0BMsTmsFQzA-82" style="rounded=0;orthogonalLoop=1;jettySize=auto;html=1;exitX=1;exitY=0.5;exitDx=0;exitDy=0;entryX=0;entryY=0.5;entryDx=0;entryDy=0;" parent="1" source="SxVyRgGix0BMsTmsFQzA-79" target="SxVyRgGix0BMsTmsFQzA-75" edge="1">
          <mxGeometry relative="1" as="geometry" />
        </mxCell>
        <mxCell id="SxVyRgGix0BMsTmsFQzA-83" style="rounded=0;orthogonalLoop=1;jettySize=auto;html=1;exitX=1;exitY=0.5;exitDx=0;exitDy=0;entryX=0;entryY=0.5;entryDx=0;entryDy=0;" parent="1" source="SxVyRgGix0BMsTmsFQzA-79" target="SxVyRgGix0BMsTmsFQzA-76" edge="1">
          <mxGeometry relative="1" as="geometry" />
        </mxCell>
        <mxCell id="SxVyRgGix0BMsTmsFQzA-84" style="rounded=0;orthogonalLoop=1;jettySize=auto;html=1;exitX=1;exitY=0.5;exitDx=0;exitDy=0;entryX=0;entryY=0.5;entryDx=0;entryDy=0;" parent="1" source="SxVyRgGix0BMsTmsFQzA-79" target="SxVyRgGix0BMsTmsFQzA-81" edge="1">
          <mxGeometry relative="1" as="geometry" />
        </mxCell>
        <mxCell id="SxVyRgGix0BMsTmsFQzA-79" value="Softmax" style="rounded=0;whiteSpace=wrap;html=1;fillColor=#dae8fc;strokeColor=#6c8ebf;" parent="1" vertex="1">
          <mxGeometry x="807.5" y="92.5" width="60" height="35" as="geometry" />
        </mxCell>
        <mxCell id="SxVyRgGix0BMsTmsFQzA-81" value="entailment" style="text;html=1;strokeColor=none;fillColor=none;align=center;verticalAlign=middle;whiteSpace=wrap;rounded=0;" parent="1" vertex="1">
          <mxGeometry x="900" y="125" width="60" height="30" as="geometry" />
        </mxCell>
      </root>
    </mxGraphModel>
  </diagram>
</mxfile>
